<svg id="fa333cd1-8f56-4566-9d2b-afdb5d2f3a6f" data-name="Layer 1" xmlns="http://www.w3.org/2000/svg" viewBox="0 0 304.58 517.1"><defs><style>.ea1b6bc8-00df-4faf-9cda-e2ad5756bb37{fill:#595554;}</style></defs><path d="M141.25,369.28h4.66c1.57,0,4.39,0,6.21,2.62a7.18,7.18,0,0,1,1.29,4.37c0,3.83-1.9,7.06-7.24,7.06h-4.92Zm3.59,10.9h1.54c2.68,0,3.44-1.86,3.44-3.86a5,5,0,0,0-.68-2.6,3,3,0,0,0-2.74-1.29h-1.56Z" transform="translate(-49.19 -36.23)"/><path d="M154.72,378a5.68,5.68,0,1,1,5.68,5.63,5.51,5.51,0,0,1-5.68-5.63Zm3.16,0a2.53,2.53,0,1,0,2.52-2.68,2.56,2.56,0,0,0-2.52,2.68Z" transform="translate(-49.19 -36.23)"/><path d="M167.87,372.79h2.95v1.12a3.12,3.12,0,0,1,2.9-1.48c3.55,0,3.92,2.89,3.92,4.31v6.59h-3.16v-5.75c0-1.16-.24-2.19-1.65-2.19-1.56,0-1.81,1.12-1.81,2.21v5.73h-3.15Z" transform="translate(-49.19 -36.23)"/><path d="M180.37,369.28h2.7l-2,4.74h-2.28Z" transform="translate(-49.19 -36.23)"/><path d="M185.33,375.18h-1.56v-2.39h1.56v-3.51h3.15v3.51H190v2.39h-1.53v8.15h-3.15Z" transform="translate(-49.19 -36.23)"/><path d="M197.87,375.18h-1.56v-2.39h1.56v-3.51H201v3.51h1.52v2.39H201v8.15h-3.15Z" transform="translate(-49.19 -36.23)"/><path d="M203.91,369.28h3.16v4.48a3,3,0,0,1,2.75-1.33,3.33,3.33,0,0,1,3.14,1.5,6.73,6.73,0,0,1,.72,3.51v5.89h-3.16V377.6a3,3,0,0,0-.32-1.54,1.5,1.5,0,0,0-1.37-.67,1.54,1.54,0,0,0-1.54.86,2.83,2.83,0,0,0-.22,1.23v5.85h-3.16Z" transform="translate(-49.19 -36.23)"/><path d="M215.92,369.28h3.15v2.39h-3.15Zm0,3.51h3.15v10.54h-3.15Z" transform="translate(-49.19 -36.23)"/><path d="M221.35,372.79h3v1.12a3.14,3.14,0,0,1,2.91-1.48c3.55,0,3.91,2.89,3.91,4.31v6.59H228v-5.75c0-1.16-.25-2.19-1.66-2.19-1.56,0-1.8,1.12-1.8,2.21v5.73h-3.16Z" transform="translate(-49.19 -36.23)"/><path d="M233.48,369.28h3.15v7.33l3-3.82h3.75l-4,4.63,3.85,5.91h-3.57l-3-5.07v5.07h-3.15Z" transform="translate(-49.19 -36.23)"/><path d="M248.09,383.33H244.8V380.1h3.29Z" transform="translate(-49.19 -36.23)"/><path d="M254.05,383.33h-3.28V380.1h3.28Z" transform="translate(-49.19 -36.23)"/><path d="M260,383.33h-3.29V380.1H260Z" transform="translate(-49.19 -36.23)"/><path class="ea1b6bc8-00df-4faf-9cda-e2ad5756bb37" d="M97.53,388.44v1.28h-3V400H93V389.72H90v-1.28Z" transform="translate(-49.19 -36.23)"/><path class="ea1b6bc8-00df-4faf-9cda-e2ad5756bb37" d="M103.36,400v-5.47c0-1-.32-1.7-1.44-1.7-1.31,0-1.64,1.06-1.64,2.42V400H99V388.44h1.32V393h.06a2.12,2.12,0,0,1,2.19-1.2c1.38,0,2.15.69,2.15,2.51V400Z" transform="translate(-49.19 -36.23)"/><path class="ea1b6bc8-00df-4faf-9cda-e2ad5756bb37" d="M107,388.44h1.47v1.41H107ZM108.34,400H107v-8.08h1.31Z" transform="translate(-49.19 -36.23)"/><path class="ea1b6bc8-00df-4faf-9cda-e2ad5756bb37" d="M115.08,400v-5.6c0-.87-.31-1.57-1.43-1.57-1.44,0-1.65,1.28-1.65,2.38V400h-1.31v-6.4c0-.56,0-1.12-.08-1.68H112v1h.07a2.12,2.12,0,0,1,2.16-1.2c1.73,0,2.16,1,2.16,2.64V400Z" transform="translate(-49.19 -36.23)"/><path class="ea1b6bc8-00df-4faf-9cda-e2ad5756bb37" d="M120.08,400h-1.31V388.44h1.31v7h0l2.46-3.49h1.6l-2.69,3.47,3.17,4.61H123l-2.88-4.53h0Z" transform="translate(-49.19 -36.23)"/><path class="ea1b6bc8-00df-4faf-9cda-e2ad5756bb37" d="M125.84,388.44h1.47v1.41h-1.47ZM127.23,400h-1.31v-8.08h1.31Z" transform="translate(-49.19 -36.23)"/><path class="ea1b6bc8-00df-4faf-9cda-e2ad5756bb37" d="M134,400v-5.6c0-.87-.3-1.57-1.42-1.57-1.44,0-1.65,1.28-1.65,2.38V400h-1.31v-6.4c0-.56,0-1.12-.08-1.68h1.39v1H131a2.12,2.12,0,0,1,2.16-1.2c1.73,0,2.16,1,2.16,2.64V400Z" transform="translate(-49.19 -36.23)"/><path class="ea1b6bc8-00df-4faf-9cda-e2ad5756bb37" d="M141.94,391.92h1.31v8.9c0,1.81-1.2,2.24-3,2.24-1.35,0-2.57-.68-2.45-2.16h1.47a1.12,1.12,0,0,0,1.23,1.16,1.29,1.29,0,0,0,1.41-1.39V399h-.05a2,2,0,0,1-1.77,1c-2.2,0-2.63-1.89-2.63-4.29,0-3.71,1.87-3.95,2.53-3.95a2,2,0,0,1,1.89,1.15h0Zm-1.54.93c-1.48,0-1.53,1.79-1.53,2.86,0,2.59.59,3.2,1.57,3.2,1.58,0,1.53-1.87,1.53-3S142.05,392.85,140.4,392.85Z" transform="translate(-49.19 -36.23)"/><path class="ea1b6bc8-00df-4faf-9cda-e2ad5756bb37" d="M149.27,388.44h1.47v1.41h-1.47ZM150.66,400h-1.31v-8.08h1.31Z" transform="translate(-49.19 -36.23)"/><path class="ea1b6bc8-00df-4faf-9cda-e2ad5756bb37" d="M155.39,400.16c-1.74,0-2.83-.77-2.78-2.62h1.49c0,.46,0,1.55,1.34,1.55.79,0,1.39-.4,1.39-1.23,0-1.44-4-1.48-4-3.89,0-.85.51-2.21,2.79-2.21,1.44,0,2.67.69,2.56,2.29h-1.46a1.13,1.13,0,0,0-1.26-1.3,1.1,1.1,0,0,0-1.25,1.09c0,1.42,4,1.39,4,3.86C158.21,399.47,157,400.16,155.39,400.16Z" transform="translate(-49.19 -36.23)"/><path class="ea1b6bc8-00df-4faf-9cda-e2ad5756bb37" d="M164,391.92v-1.56l1.31-.59v2.15H167v1h-1.76v4.95c0,.51,0,1.16,1.2,1.16.1,0,.31,0,.59-.06v1c-.43,0-.86.13-1.29.13-1.25,0-1.81-.52-1.81-1.44v-5.75h-1.33v-1Z" transform="translate(-49.19 -36.23)"/><path class="ea1b6bc8-00df-4faf-9cda-e2ad5756bb37" d="M172.74,400v-5.47c0-1-.32-1.7-1.44-1.7-1.31,0-1.65,1.06-1.65,2.42V400h-1.31V388.44h1.31V393h.06a2.13,2.13,0,0,1,2.2-1.2c1.37,0,2.14.69,2.14,2.51V400Z" transform="translate(-49.19 -36.23)"/><path class="ea1b6bc8-00df-4faf-9cda-e2ad5756bb37" d="M177.71,396.38c0,2.26.61,2.71,1.64,2.71a1.44,1.44,0,0,0,1.4-1.54h1.45c0,1.79-1.13,2.61-2.82,2.61s-3.08-.51-3.08-4.08c0-2.37.28-4.32,3.08-4.32,2.3,0,2.88,1.26,2.88,3.93v.69Zm3.16-1c0-2.35-.66-2.64-1.62-2.64s-1.52.4-1.54,2.64Z" transform="translate(-49.19 -36.23)"/><path class="ea1b6bc8-00df-4faf-9cda-e2ad5756bb37" d="M189.42,396.38c0,2.26.61,2.71,1.64,2.71a1.46,1.46,0,0,0,1.41-1.54h1.44c0,1.79-1.12,2.61-2.82,2.61s-3.07-.51-3.07-4.08c0-2.37.27-4.32,3.07-4.32,2.3,0,2.88,1.26,2.88,3.93v.69Zm3.16-1c0-2.35-.66-2.64-1.62-2.64s-1.52.4-1.54,2.64Z" transform="translate(-49.19 -36.23)"/><path class="ea1b6bc8-00df-4faf-9cda-e2ad5756bb37" d="M200.61,400v-5.6c0-.87-.3-1.57-1.42-1.57-1.44,0-1.65,1.28-1.65,2.38V400h-1.32v-6.4c0-.56,0-1.12-.08-1.68h1.4v1h.06a2.12,2.12,0,0,1,2.16-1.2c1.73,0,2.16,1,2.16,2.64V400Z" transform="translate(-49.19 -36.23)"/><path class="ea1b6bc8-00df-4faf-9cda-e2ad5756bb37" d="M205.58,396.38c0,2.26.61,2.71,1.64,2.71a1.46,1.46,0,0,0,1.41-1.54h1.44c0,1.79-1.12,2.61-2.82,2.61s-3.07-.51-3.07-4.08c0-2.37.27-4.32,3.07-4.32,2.3,0,2.88,1.26,2.88,3.93v.69Zm3.16-1c0-2.35-.66-2.64-1.62-2.64s-1.52.4-1.54,2.64Z" transform="translate(-49.19 -36.23)"/><path class="ea1b6bc8-00df-4faf-9cda-e2ad5756bb37" d="M216.35,400v-5.6c0-.82-.22-1.57-1.28-1.57a1.51,1.51,0,0,0-1.13.54,2.43,2.43,0,0,0-.31,1.19V400h-1.31v-6.4c0-.56,0-1.12-.08-1.68h1.39v1h0a1.94,1.94,0,0,1,2-1.17,2,2,0,0,1,1.89,1,1.93,1.93,0,0,1,1.92-1,1.91,1.91,0,0,1,2.21,2.09V400h-1.31v-5.6c0-.82-.23-1.57-1.28-1.57a1.2,1.2,0,0,0-1,.3,2.09,2.09,0,0,0-.45,1.43V400Z" transform="translate(-49.19 -36.23)"/><path class="ea1b6bc8-00df-4faf-9cda-e2ad5756bb37" d="M226.45,398.5h0l1.94-6.58h1.42l-3.66,11.14h-1.36l.91-3.06L223,391.92h1.52Z" transform="translate(-49.19 -36.23)"/><path class="ea1b6bc8-00df-4faf-9cda-e2ad5756bb37" d="M234.61,396.08c0-2.37.27-4.32,3.07-4.32s3.07,1.95,3.07,4.32c0,3.57-1.36,4.08-3.07,4.08S234.61,399.65,234.61,396.08Zm4.77-.56c0-2.21-.69-2.69-1.7-2.69s-1.7.48-1.7,2.69c0,2.62.34,3.57,1.7,3.57S239.38,398.14,239.38,395.52Z" transform="translate(-49.19 -36.23)"/><path class="ea1b6bc8-00df-4faf-9cda-e2ad5756bb37" d="M243.15,391.92v-1.57c0-1.63,1.15-2,2.32-2a3.69,3.69,0,0,1,.63,0v.95c-1.39-.1-1.64.49-1.64,1.15v1.38h1.64v1h-1.64V400h-1.31v-7.09H241.9v-1Z" transform="translate(-49.19 -36.23)"/><path class="ea1b6bc8-00df-4faf-9cda-e2ad5756bb37" d="M255.3,394.51c0-1.33-.63-1.68-1.12-1.68-1,0-1.7.48-1.7,2.69,0,2.62.34,3.57,1.7,3.57.3,0,1.21-.32,1.16-1.78h1.38a2.55,2.55,0,0,1-2.54,2.85c-1.72,0-3.08-.51-3.08-4.08,0-2.37.28-4.32,3.08-4.32,1.61,0,2.56.94,2.48,2.75Z" transform="translate(-49.19 -36.23)"/><path class="ea1b6bc8-00df-4faf-9cda-e2ad5756bb37" d="M260.51,393.13h0c.55-1.23,1.22-1.37,2.5-1.37v1.36l-.35-.05a2,2,0,0,0-.35,0c-1.46,0-1.83,1.1-1.83,2.19V400H259.2v-8.08h1.31Z" transform="translate(-49.19 -36.23)"/><path class="ea1b6bc8-00df-4faf-9cda-e2ad5756bb37" d="M265.84,396.38c0,2.26.61,2.71,1.63,2.71a1.45,1.45,0,0,0,1.41-1.54h1.44c0,1.79-1.12,2.61-2.82,2.61s-3.07-.51-3.07-4.08c0-2.37.27-4.32,3.07-4.32,2.31,0,2.89,1.26,2.89,3.93v.69Zm3.15-1c0-2.35-.65-2.64-1.61-2.64s-1.52.4-1.54,2.64Z" transform="translate(-49.19 -36.23)"/><path class="ea1b6bc8-00df-4faf-9cda-e2ad5756bb37" d="M276.8,398.83h0a2,2,0,0,1-2,1.33c-1.72,0-2.21-1.1-2.21-2.66,0-2.45,2.4-2.56,4.24-2.51,0-1.07.05-2.24-1.36-2.24a1.2,1.2,0,0,0-1.27,1.44h-1.42c.06-1.81,1-2.43,2.74-2.43,2.08,0,2.62,1.07,2.62,2.43v3.89a13.56,13.56,0,0,0,.16,1.92H276.8Zm-3-1.23c0,.78.38,1.49,1.26,1.49s1.8-.5,1.67-3.11C275.52,396,273.84,395.89,273.84,397.6Z" transform="translate(-49.19 -36.23)"/><path class="ea1b6bc8-00df-4faf-9cda-e2ad5756bb37" d="M280.86,391.92v-1.56l1.32-.59v2.15h1.76v1h-1.76v4.95c0,.51,0,1.16,1.2,1.16L284,399v1c-.43,0-.87.13-1.3.13-1.25,0-1.81-.52-1.81-1.44v-5.75h-1.32v-1Z" transform="translate(-49.19 -36.23)"/><path class="ea1b6bc8-00df-4faf-9cda-e2ad5756bb37" d="M285.13,388.44h1.48v1.41h-1.48Zm1.4,11.56h-1.32v-8.08h1.32Z" transform="translate(-49.19 -36.23)"/><path class="ea1b6bc8-00df-4faf-9cda-e2ad5756bb37" d="M288,391.92h1.47l1.81,6.85h0l2-6.85h1.37L292.06,400h-1.71Z" transform="translate(-49.19 -36.23)"/><path class="ea1b6bc8-00df-4faf-9cda-e2ad5756bb37" d="M296,388.44h1.47v1.41H296ZM297.34,400H296v-8.08h1.31Z" transform="translate(-49.19 -36.23)"/><path class="ea1b6bc8-00df-4faf-9cda-e2ad5756bb37" d="M299.84,391.92v-1.56l1.31-.59v2.15h1.76v1h-1.76v4.95c0,.51,0,1.16,1.2,1.16.1,0,.31,0,.59-.06v1c-.43,0-.86.13-1.29.13-1.25,0-1.81-.52-1.81-1.44v-5.75h-1.33v-1Z" transform="translate(-49.19 -36.23)"/><path class="ea1b6bc8-00df-4faf-9cda-e2ad5756bb37" d="M306.66,398.5h0l1.94-6.58h1.42l-3.67,11.14H305l.92-3.06-2.74-8.08h1.52Z" transform="translate(-49.19 -36.23)"/><path d="M88.42,49.67H76.6V36.23h38.88V49.67H103.73V96.16H88.42Z" transform="translate(-49.19 -36.23)"/><path d="M117.58,36.23h33.94V49.67H132.89V59H151V72.43H132.89V82.72h18.63V96.16H117.58Z" transform="translate(-49.19 -36.23)"/><path d="M192.51,72.76l-.33-36.53h14.66V96.16H193.56L170.64,60,171,96.16H156.3V36.23h13.2Z" transform="translate(-49.19 -36.23)"/><path d="M228.31,82.72h19.11V96.16H209.6v-10l20.65-36.45H209.6V36.23h37.82V48.62Z" transform="translate(-49.19 -36.23)"/><path d="M250.1,36.23h15.31V96.16H250.1Z" transform="translate(-49.19 -36.23)"/><path d="M308.42,72.76l-.33-36.53h14.66V96.16H309.47L286.55,60l.32,36.12H272.21V36.23h13.2Z" transform="translate(-49.19 -36.23)"/><path d="M96,116.21a17.12,17.12,0,0,0-3.3-4.23,15.58,15.58,0,0,0-10.48-3.89c-7.87,0-17.08,5.84-17.08,18.18,0,13.11,9.3,18.78,17.16,18.78a16.86,16.86,0,0,0,9.81-2.79A12.69,12.69,0,0,0,97.31,135H78.62V122.21h37.13a40.24,40.24,0,0,1-2.88,17.93c-6.09,13.79-20.13,18.94-30.44,18.94a32.72,32.72,0,0,1-33.24-32.81c0-18.69,15.06-32.22,33.49-32.22,15,0,27.82,10.07,31.29,22.16Z" transform="translate(-49.19 -36.23)"/><path d="M132,135.07,113.29,95.24h17.33l9.3,25.11,9.39-25.11h17.17L148,135.07v22.75H132Z" transform="translate(-49.19 -36.23)"/><path d="M171,157.82H153.62L178.4,95.24h13.78l24,62.58H198.69l-3-9h-21.9Zm13.61-43.56-6.76,21.82h13.78Z" transform="translate(-49.19 -36.23)"/><path d="M219.15,109.28H206.81v-14H247.4v14H235.14v48.54h-16Z" transform="translate(-49.19 -36.23)"/><path d="M260.25,137.1c0,7.27,4.48,8.54,6.51,8.54a6,6,0,0,0,6.09-6c0-3.29-2.62-4.31-12.26-8.37-4.4-1.77-15.31-6.17-15.31-17.93,0-12.6,11.42-19.28,21.9-19.28,8.63,0,20.81,4.4,21.06,19.45H272.43c-.34-2.11-.85-6.08-5.75-6.08-2.8,0-5.5,1.94-5.5,4.9s1.69,3.64,12.94,8.71c11.67,5.24,14.63,10.66,14.63,17.93,0,10-5.25,20-21.82,20-16.41,0-23-9.64-22.58-21.9Z" transform="translate(-49.19 -36.23)"/><path d="M287.73,127.2c0-20.46,15.73-33.15,33-33.15,19.28,0,33.06,15.06,33.06,32.48S340.07,159,320.62,159c-19.7,0-32.89-15.65-32.89-31.71Zm16-.76C303.71,136,310.22,145,321,145c11.33,0,16.83-10.32,16.83-18.35s-5.5-18.52-17-18.52c-11.08,0-17.08,9.47-17.08,18.27Z" transform="translate(-49.19 -36.23)"/><path class="ea1b6bc8-00df-4faf-9cda-e2ad5756bb37" d="M150.82,170.71a4,4,0,0,0-.5-2.52,2.86,2.86,0,0,0-1.94-.75,2.7,2.7,0,0,0-2.62,1.35c-.07.19-.5.62-.5,3.6V177c0,4.25,1.39,4.75,3.09,4.75.67,0,2.71-.24,2.74-3.62h2.28c.1,5.47-3.77,5.47-4.9,5.47-2.16,0-5.47-.15-5.47-6.87v-4.89c0-4.9,2.16-6.29,5.57-6.29s4.75,1.78,4.53,5.14Z" transform="translate(-49.19 -36.23)"/><path class="ea1b6bc8-00df-4faf-9cda-e2ad5756bb37" d="M159.06,175.29v8h-2.21V165.93h6c3.08,0,4.16,2.16,4.16,4.32a3.74,3.74,0,0,1-3.17,4v0c2,.31,2.71,1,2.83,4.46a27.45,27.45,0,0,0,.6,4.54h-2.3c-.63-1.2-.48-3.46-.67-5.76a2.29,2.29,0,0,0-2.62-2.21Zm0-1.92h3.31c1.58,0,2.35-1.37,2.35-2.88a2.35,2.35,0,0,0-2.33-2.64h-3.33Z" transform="translate(-49.19 -36.23)"/><path class="ea1b6bc8-00df-4faf-9cda-e2ad5756bb37" d="M170.6,183.26V165.93h8.93v1.92h-6.72v5.57h6.24v1.92h-6.24v6h6.86v1.92Z" transform="translate(-49.19 -36.23)"/><path class="ea1b6bc8-00df-4faf-9cda-e2ad5756bb37" d="M186.87,165.93h2.81l5.64,17.33h-2.47l-1.25-4.13h-6.7l-1.29,4.13h-2.23Zm1.35,2h-.05l-2.71,9.24H191Z" transform="translate(-49.19 -36.23)"/><path class="ea1b6bc8-00df-4faf-9cda-e2ad5756bb37" d="M205.93,165.93v1.92h-4.56v15.41h-2.21V167.85H194.6v-1.92Z" transform="translate(-49.19 -36.23)"/><path class="ea1b6bc8-00df-4faf-9cda-e2ad5756bb37" d="M211.06,183.26h-2.2V165.93h2.2Z" transform="translate(-49.19 -36.23)"/><path class="ea1b6bc8-00df-4faf-9cda-e2ad5756bb37" d="M215.53,176.92v-5.69c0-3.45,1.77-5.66,5.45-5.66s5.45,2.21,5.45,5.66v5.69c0,4.8-1.78,6.7-5.45,6.7S215.53,181.72,215.53,176.92Zm8.64.1v-5.86c0-3.62-2.5-3.74-3.19-3.74s-3.19.12-3.19,3.74V177c0,3.79,1.1,4.75,3.19,4.75S224.17,180.81,224.17,177Z" transform="translate(-49.19 -36.23)"/><path class="ea1b6bc8-00df-4faf-9cda-e2ad5756bb37" d="M242.63,165.93v17.33h-3l-6.84-15h0v15h-2V165.93h3.12l6.75,14.83h0V165.93Z" transform="translate(-49.19 -36.23)"/><path class="ea1b6bc8-00df-4faf-9cda-e2ad5756bb37" d="M248.7,178.1v.5c0,2.36,1.48,3.1,2.9,3.1,1.75,0,3.1-.74,3.1-2.81,0-3.84-7.78-3.41-7.78-8.62,0-3.07,2.18-4.7,5.09-4.7,3.17,0,4.94,1.54,4.8,5.06H254.5c0-1.89-.57-3.14-2.66-3.14a2.41,2.41,0,0,0-2.66,2.54c0,3.82,7.77,3.27,7.77,8.76,0,3.65-2.52,4.83-5.37,4.83-5.12,0-5.12-3.87-5.07-5.52Z" transform="translate(-49.19 -36.23)"/><path class="ea1b6bc8-00df-4faf-9cda-e2ad5756bb37" d="M100.7,551.83a2.93,2.93,0,0,1-2.14-.89,3,3,0,0,1,0-4.29,3,3,0,1,1,2.14,5.18Zm0-.43a2.41,2.41,0,0,0,2-.94,2.58,2.58,0,0,0,0-3.33,2.58,2.58,0,0,0-4,0,2.58,2.58,0,0,0,0,3.33A2.42,2.42,0,0,0,100.7,551.4Zm1.11-1.06a3,3,0,0,1-1,.19,1.6,1.6,0,0,1-1.21-.48,1.66,1.66,0,0,1-.47-1.23,1.7,1.7,0,0,1,.46-1.26,1.6,1.6,0,0,1,1.23-.48,4.66,4.66,0,0,1,.88.11l.1,0v.47a2.6,2.6,0,0,0-1-.21,1.05,1.05,0,0,0-.83.36,1.45,1.45,0,0,0-.32,1,1.34,1.34,0,0,0,.33,1,1.17,1.17,0,0,0,.89.35,1.73,1.73,0,0,0,.88-.25Z" transform="translate(-49.19 -36.23)"/><path class="ea1b6bc8-00df-4faf-9cda-e2ad5756bb37" d="M108.78,551.69v-5.17h-2v-.61h4.92v.61H109.6v5.17Z" transform="translate(-49.19 -36.23)"/><path class="ea1b6bc8-00df-4faf-9cda-e2ad5756bb37" d="M115.59,551.55a4.47,4.47,0,0,1-1.32.23,2,2,0,0,1-1.53-.62,2.25,2.25,0,0,1-.59-1.61,2.35,2.35,0,0,1,.52-1.58,1.67,1.67,0,0,1,1.33-.62,1.39,1.39,0,0,1,1.19.55,2.52,2.52,0,0,1,.42,1.56v.23h-2.68c.12,1,.61,1.51,1.48,1.51a3.57,3.57,0,0,0,1.18-.26ZM113,549.11h1.87c0-.79-.29-1.18-.88-1.18S113,548.32,113,549.11Z" transform="translate(-49.19 -36.23)"/><path class="ea1b6bc8-00df-4faf-9cda-e2ad5756bb37" d="M116.94,551.69v-4.25h.77v.8a1.78,1.78,0,0,1,1.49-.89,1.14,1.14,0,0,1,.88.35,1.31,1.31,0,0,1,.33.94v3.05h-.77v-2.8a1.21,1.21,0,0,0-.14-.67A.5.5,0,0,0,119,548a1.71,1.71,0,0,0-1.33.93v2.75Z" transform="translate(-49.19 -36.23)"/><path class="ea1b6bc8-00df-4faf-9cda-e2ad5756bb37" d="M121.62,551.69v-.58l2.62-3.09h-2.5v-.58h3.45V548l-2.62,3.09h2.67v.58Z" transform="translate(-49.19 -36.23)"/><path class="ea1b6bc8-00df-4faf-9cda-e2ad5756bb37" d="M126.49,546.67v-.76h.77v.76Zm0,5v-4.25h.77v4.25Z" transform="translate(-49.19 -36.23)"/><path class="ea1b6bc8-00df-4faf-9cda-e2ad5756bb37" d="M128.8,551.69v-4.25h.77v.8a1.8,1.8,0,0,1,1.5-.89,1.16,1.16,0,0,1,.88.35,1.35,1.35,0,0,1,.32.94v3.05h-.77v-2.8a1.23,1.23,0,0,0-.13-.67.52.52,0,0,0-.46-.21,1.72,1.72,0,0,0-1.34.93v2.75Z" transform="translate(-49.19 -36.23)"/><path class="ea1b6bc8-00df-4faf-9cda-e2ad5756bb37" d="M140.62,551.53a6.8,6.8,0,0,1-1.83.3,2.78,2.78,0,0,1-2.12-.78,3.16,3.16,0,0,1-.73-2.25,3.13,3.13,0,0,1,.75-2.24,2.74,2.74,0,0,1,2.1-.8,7,7,0,0,1,1.82.26v.76a6.21,6.21,0,0,0-1.83-.41,1.77,1.77,0,0,0-1.45.64,2.73,2.73,0,0,0-.52,1.79,2.62,2.62,0,0,0,.55,1.78,1.94,1.94,0,0,0,1.56.64,3,3,0,0,0,.88-.15v-1.88h.82Z" transform="translate(-49.19 -36.23)"/><path class="ea1b6bc8-00df-4faf-9cda-e2ad5756bb37" d="M142.33,553.23l.69-1.54-1.64-4.25h.83l1.21,3.2,1.3-3.2h.73l-2.32,5.79Z" transform="translate(-49.19 -36.23)"/><path class="ea1b6bc8-00df-4faf-9cda-e2ad5756bb37" d="M148.45,551.15a2,2,0,0,1-1.33.63,1.23,1.23,0,0,1-.88-.33,1.09,1.09,0,0,1-.35-.83,1.21,1.21,0,0,1,.59-1.07,3.12,3.12,0,0,1,1.68-.37h.18v-.51c0-.5-.26-.74-.77-.74a2.81,2.81,0,0,0-1.31.37v-.63a4,4,0,0,1,1.47-.32,1.47,1.47,0,0,1,1,.32,1.36,1.36,0,0,1,.34,1v1.92c0,.44.13.66.4.66l.15,0,.05.43a1.32,1.32,0,0,1-.57.12Q148.6,551.78,148.45,551.15Zm-.11-.42v-1.1h-.25a1.94,1.94,0,0,0-1,.24.71.71,0,0,0-.4.64.61.61,0,0,0,.2.46.66.66,0,0,0,.48.2A1.64,1.64,0,0,0,148.34,550.73Z" transform="translate(-49.19 -36.23)"/><path class="ea1b6bc8-00df-4faf-9cda-e2ad5756bb37" d="M152.57,551.69a2.57,2.57,0,0,1-.62.09,1.22,1.22,0,0,1-.91-.33,1.3,1.3,0,0,1-.33-.94V548h-.53v-.58h.53v-.77l.77-.07v.84h1.11V548h-1.11v2.35q0,.84.72.84a2,2,0,0,0,.37-.05Z" transform="translate(-49.19 -36.23)"/><path class="ea1b6bc8-00df-4faf-9cda-e2ad5756bb37" d="M153.52,551.54v-.71a3,3,0,0,0,1.31.38.85.85,0,0,0,.55-.18.58.58,0,0,0,.22-.45c0-.27-.21-.48-.62-.66l-.44-.19c-.67-.27-1-.67-1-1.19a1.06,1.06,0,0,1,.39-.87,1.67,1.67,0,0,1,1.08-.32,4.63,4.63,0,0,1,.88.1l.16,0v.64a3.78,3.78,0,0,0-1-.19.91.91,0,0,0-.54.15.45.45,0,0,0-.2.39c0,.23.19.42.56.58l.37.16a2.58,2.58,0,0,1,.9.56,1.09,1.09,0,0,1,.26.74,1.12,1.12,0,0,1-.44.91,1.74,1.74,0,0,1-1.13.36A4.34,4.34,0,0,1,153.52,551.54Z" transform="translate(-49.19 -36.23)"/><path class="ea1b6bc8-00df-4faf-9cda-e2ad5756bb37" d="M159.44,551.78a1.91,1.91,0,0,1-1.48-.59,2.34,2.34,0,0,1-.55-1.62A2.3,2.3,0,0,1,158,548a1.89,1.89,0,0,1,1.48-.6,1.91,1.91,0,0,1,1.48.6,2.3,2.3,0,0,1,.54,1.62,2.33,2.33,0,0,1-.54,1.62A1.94,1.94,0,0,1,159.44,551.78Zm0-.57a1,1,0,0,0,.88-.43,2,2,0,0,0,.32-1.21,1.92,1.92,0,0,0-.32-1.21,1.13,1.13,0,0,0-1.77,0,2,2,0,0,0-.32,1.21,2,2,0,0,0,.32,1.21A1,1,0,0,0,159.44,551.21Z" transform="translate(-49.19 -36.23)"/><path class="ea1b6bc8-00df-4faf-9cda-e2ad5756bb37" d="M169.52,551.39a4.09,4.09,0,0,1-1.87.44,2.68,2.68,0,0,1-2.08-.79,3.74,3.74,0,0,1,0-4.48,2.76,2.76,0,0,1,2.11-.8,8.36,8.36,0,0,1,1.82.25v.77a6.21,6.21,0,0,0-1.83-.41,1.78,1.78,0,0,0-1.46.64,2.82,2.82,0,0,0-.52,1.8,2.59,2.59,0,0,0,.55,1.74,1.88,1.88,0,0,0,1.51.64,3.81,3.81,0,0,0,1.76-.5Z" transform="translate(-49.19 -36.23)"/><path class="ea1b6bc8-00df-4faf-9cda-e2ad5756bb37" d="M170.73,551.69v-4.25h.77v.8a1.44,1.44,0,0,1,1.33-.89l.24,0v.72a1.22,1.22,0,0,0-.35-.06,1.44,1.44,0,0,0-1.22.86v2.8Z" transform="translate(-49.19 -36.23)"/><path class="ea1b6bc8-00df-4faf-9cda-e2ad5756bb37" d="M177.11,551.55a4.47,4.47,0,0,1-1.32.23,2,2,0,0,1-1.53-.62,2.21,2.21,0,0,1-.59-1.61,2.35,2.35,0,0,1,.52-1.58,1.67,1.67,0,0,1,1.33-.62,1.39,1.39,0,0,1,1.19.55,2.52,2.52,0,0,1,.42,1.56v.23h-2.68c.11,1,.61,1.51,1.48,1.51a3.57,3.57,0,0,0,1.18-.26Zm-2.62-2.44h1.87c0-.79-.3-1.18-.88-1.18S174.56,548.32,174.49,549.11Z" transform="translate(-49.19 -36.23)"/><path class="ea1b6bc8-00df-4faf-9cda-e2ad5756bb37" d="M180.65,551.15a2,2,0,0,1-1.33.63,1.22,1.22,0,0,1-.88-.33,1.09,1.09,0,0,1-.35-.83,1.21,1.21,0,0,1,.59-1.07,3.12,3.12,0,0,1,1.68-.37h.18v-.51c0-.5-.26-.74-.77-.74a2.81,2.81,0,0,0-1.31.37v-.63a4,4,0,0,1,1.47-.32,1.49,1.49,0,0,1,1,.32,1.35,1.35,0,0,1,.33,1v1.92c0,.44.14.66.41.66l.15,0,0,.43a1.32,1.32,0,0,1-.57.12Q180.8,551.78,180.65,551.15Zm-.11-.42v-1.1h-.25a1.94,1.94,0,0,0-1,.24.71.71,0,0,0-.4.64.61.61,0,0,0,.2.46.66.66,0,0,0,.48.2A1.64,1.64,0,0,0,180.54,550.73Z" transform="translate(-49.19 -36.23)"/><path class="ea1b6bc8-00df-4faf-9cda-e2ad5756bb37" d="M184.77,551.69a2.57,2.57,0,0,1-.62.09,1.22,1.22,0,0,1-.91-.33,1.3,1.3,0,0,1-.33-.94V548h-.53v-.58h.53v-.77l.77-.07v.84h1.11V548h-1.11v2.35q0,.84.72.84a2,2,0,0,0,.37-.05Z" transform="translate(-49.19 -36.23)"/><path class="ea1b6bc8-00df-4faf-9cda-e2ad5756bb37" d="M185.87,546.67v-.76h.77v.76Zm0,5v-4.25h.77v4.25Z" transform="translate(-49.19 -36.23)"/><path class="ea1b6bc8-00df-4faf-9cda-e2ad5756bb37" d="M189.87,551.78a1.94,1.94,0,0,1-1.48-.59,2.33,2.33,0,0,1-.54-1.62,2.3,2.3,0,0,1,.54-1.62,2.13,2.13,0,0,1,3,0,2.3,2.3,0,0,1,.54,1.62,2.33,2.33,0,0,1-.54,1.62A1.93,1.93,0,0,1,189.87,551.78Zm0-.57a1.06,1.06,0,0,0,.89-.43,2,2,0,0,0,.31-1.21,2,2,0,0,0-.31-1.21,1.14,1.14,0,0,0-1.78,0,2,2,0,0,0-.31,1.21,2,2,0,0,0,.31,1.21A1.06,1.06,0,0,0,189.87,551.21Z" transform="translate(-49.19 -36.23)"/><path class="ea1b6bc8-00df-4faf-9cda-e2ad5756bb37" d="M193.1,551.69v-4.25h.77v.8a1.77,1.77,0,0,1,1.49-.89,1.16,1.16,0,0,1,.88.35,1.31,1.31,0,0,1,.33.94v3.05h-.77v-2.8a1.21,1.21,0,0,0-.14-.67.51.51,0,0,0-.46-.21,1.69,1.69,0,0,0-1.33.93v2.75Z" transform="translate(-49.19 -36.23)"/><path class="ea1b6bc8-00df-4faf-9cda-e2ad5756bb37" d="M197.91,551.54v-.71a3,3,0,0,0,1.31.38.85.85,0,0,0,.55-.18.55.55,0,0,0,.22-.45c0-.27-.21-.48-.61-.66l-.45-.19c-.67-.27-1-.67-1-1.19a1.06,1.06,0,0,1,.39-.87,1.67,1.67,0,0,1,1.08-.32,4.54,4.54,0,0,1,.88.1l.16,0v.64a3.72,3.72,0,0,0-1-.19.91.91,0,0,0-.54.15.45.45,0,0,0-.2.39c0,.23.19.42.56.58l.38.16a2.63,2.63,0,0,1,.89.56,1.09,1.09,0,0,1,.26.74,1.12,1.12,0,0,1-.44.91,1.74,1.74,0,0,1-1.13.36A4.34,4.34,0,0,1,197.91,551.54Z" transform="translate(-49.19 -36.23)"/><path class="ea1b6bc8-00df-4faf-9cda-e2ad5756bb37" d="M204.57,551.69V551a5.27,5.27,0,0,1,1.35-1.71l.45-.39a2.17,2.17,0,0,0,.84-1.53,1,1,0,0,0-.29-.76,1.08,1.08,0,0,0-.8-.28,3,3,0,0,0-1.41.46v-.68a3.57,3.57,0,0,1,1.53-.36,1.88,1.88,0,0,1,1.3.44,1.48,1.48,0,0,1,.5,1.16,1.76,1.76,0,0,1-.25.92,5,5,0,0,1-.93,1l-.29.25a2.8,2.8,0,0,0-1.07,1.5H208v.68Z" transform="translate(-49.19 -36.23)"/><path class="ea1b6bc8-00df-4faf-9cda-e2ad5756bb37" d="M211.49,551.83A1.7,1.7,0,0,1,210,551a4.62,4.62,0,0,1,0-4.41,1.71,1.71,0,0,1,2.93,0,4.62,4.62,0,0,1,0,4.41A1.7,1.7,0,0,1,211.49,551.83Zm0-.58c.8,0,1.21-.82,1.21-2.45s-.41-2.46-1.21-2.46-1.2.82-1.2,2.46S210.69,551.25,211.49,551.25Z" transform="translate(-49.19 -36.23)"/><path class="ea1b6bc8-00df-4faf-9cda-e2ad5756bb37" d="M214.68,551.69V551A5.46,5.46,0,0,1,216,549.3l.44-.39a2.15,2.15,0,0,0,.85-1.53,1,1,0,0,0-.29-.76,1.08,1.08,0,0,0-.8-.28,2.93,2.93,0,0,0-1.41.46v-.68a3.57,3.57,0,0,1,1.53-.36,1.88,1.88,0,0,1,1.3.44,1.47,1.47,0,0,1,.49,1.16,1.67,1.67,0,0,1-.25.92,4.56,4.56,0,0,1-.92,1l-.3.25a2.91,2.91,0,0,0-1.07,1.5h2.52v.68Z" transform="translate(-49.19 -36.23)"/><path class="ea1b6bc8-00df-4faf-9cda-e2ad5756bb37" d="M220.05,551.71V551a2.81,2.81,0,0,0,1.09.23,1.2,1.2,0,0,0,.9-.33,1.29,1.29,0,0,0,.33-.93,1.16,1.16,0,0,0-.46-1,2.28,2.28,0,0,0-1.34-.33l-.42,0v-2.81h2.92v.67h-2.25v1.52a2.65,2.65,0,0,1,1.74.51,1.73,1.73,0,0,1,.63,1.42,1.63,1.63,0,0,1-.57,1.32,2.36,2.36,0,0,1-1.57.48A4.75,4.75,0,0,1,220.05,551.71Z" transform="translate(-49.19 -36.23)"/><path class="ea1b6bc8-00df-4faf-9cda-e2ad5756bb37" d="M224.92,551.69v-1h1v1Z" transform="translate(-49.19 -36.23)"/><path class="ea1b6bc8-00df-4faf-9cda-e2ad5756bb37" d="M229.27,551.69l2.29-5.78h.81l2.26,5.78h-.89l-.62-1.6h-2.46l-.63,1.6Zm1.63-2.21h2l-1-2.5Z" transform="translate(-49.19 -36.23)"/><path class="ea1b6bc8-00df-4faf-9cda-e2ad5756bb37" d="M235.49,551.69v-6.17h.77v6.17Z" transform="translate(-49.19 -36.23)"/><path class="ea1b6bc8-00df-4faf-9cda-e2ad5756bb37" d="M237.8,551.69v-6.17h.77v6.17Z" transform="translate(-49.19 -36.23)"/><path class="ea1b6bc8-00df-4faf-9cda-e2ad5756bb37" d="M242.64,551.69v-4.25h.77v.8a1.45,1.45,0,0,1,1.33-.89l.25,0v.72a1.22,1.22,0,0,0-.35-.06,1.44,1.44,0,0,0-1.23.86v2.8Z" transform="translate(-49.19 -36.23)"/><path class="ea1b6bc8-00df-4faf-9cda-e2ad5756bb37" d="M245.92,546.67v-.76h.77v.76Zm0,5v-4.25h.77v4.25Z" transform="translate(-49.19 -36.23)"/><path class="ea1b6bc8-00df-4faf-9cda-e2ad5756bb37" d="M248.25,553.1l.09-.67a3,3,0,0,0,1.32.32c.86,0,1.3-.46,1.3-1.38v-.67a1.58,1.58,0,0,1-.57.65,1.49,1.49,0,0,1-.83.24,1.52,1.52,0,0,1-1.22-.55,2.31,2.31,0,0,1-.45-1.5,2.39,2.39,0,0,1,.52-1.58,1.63,1.63,0,0,1,1.32-.61,1.57,1.57,0,0,1,1.23.58v-.49h.77v3.09a7.34,7.34,0,0,1-.11,1.47,1.68,1.68,0,0,1-.39.79,2.08,2.08,0,0,1-1.57.53A4.43,4.43,0,0,1,248.25,553.1Zm2.71-2.89v-1.75a1.5,1.5,0,0,0-1.11-.53,1,1,0,0,0-.83.42,2,2,0,0,0-.31,1.18q0,1.38,1,1.38A1.68,1.68,0,0,0,251,550.21Z" transform="translate(-49.19 -36.23)"/><path class="ea1b6bc8-00df-4faf-9cda-e2ad5756bb37" d="M253.22,551.69v-6.17H254v2.72a1.77,1.77,0,0,1,1.49-.89,1.16,1.16,0,0,1,.88.35,1.31,1.31,0,0,1,.33.94v3.05h-.77v-2.8a1.21,1.21,0,0,0-.14-.67.51.51,0,0,0-.46-.21,1.71,1.71,0,0,0-1.33.93v2.75Z" transform="translate(-49.19 -36.23)"/><path class="ea1b6bc8-00df-4faf-9cda-e2ad5756bb37" d="M260.07,551.69a2.5,2.5,0,0,1-.61.09,1.25,1.25,0,0,1-.92-.33,1.3,1.3,0,0,1-.33-.94V548h-.53v-.58h.53v-.77l.77-.07v.84h1.11V548H259v2.35q0,.84.72.84a1.9,1.9,0,0,0,.37-.05Z" transform="translate(-49.19 -36.23)"/><path class="ea1b6bc8-00df-4faf-9cda-e2ad5756bb37" d="M261,551.54v-.71a3,3,0,0,0,1.31.38.83.83,0,0,0,.55-.18.55.55,0,0,0,.22-.45c0-.27-.2-.48-.61-.66l-.45-.19c-.66-.27-1-.67-1-1.19a1,1,0,0,1,.4-.87,1.66,1.66,0,0,1,1.07-.32,4.54,4.54,0,0,1,.88.1l.16,0v.64a3.72,3.72,0,0,0-1-.19.86.86,0,0,0-.53.15.43.43,0,0,0-.2.39c0,.23.18.42.56.58l.37.16a2.53,2.53,0,0,1,.89.56,1.09,1.09,0,0,1,.26.74,1.12,1.12,0,0,1-.44.91,1.72,1.72,0,0,1-1.13.36A4.34,4.34,0,0,1,261,551.54Z" transform="translate(-49.19 -36.23)"/><path class="ea1b6bc8-00df-4faf-9cda-e2ad5756bb37" d="M267.79,551.69v-4.25h.76v.8a1.45,1.45,0,0,1,1.33-.89l.25,0v.72a1.22,1.22,0,0,0-.35-.06,1.44,1.44,0,0,0-1.23.86v2.8Z" transform="translate(-49.19 -36.23)"/><path class="ea1b6bc8-00df-4faf-9cda-e2ad5756bb37" d="M274.17,551.55a4.58,4.58,0,0,1-1.33.23,2,2,0,0,1-1.53-.62,2.25,2.25,0,0,1-.59-1.61,2.4,2.4,0,0,1,.52-1.58,1.69,1.69,0,0,1,1.34-.62,1.4,1.4,0,0,1,1.19.55,2.52,2.52,0,0,1,.42,1.56v.23h-2.67c.11,1,.6,1.51,1.48,1.51a3.62,3.62,0,0,0,1.18-.26Zm-2.63-2.44h1.87c0-.79-.29-1.18-.88-1.18S271.61,548.32,271.54,549.11Z" transform="translate(-49.19 -36.23)"/><path class="ea1b6bc8-00df-4faf-9cda-e2ad5756bb37" d="M275.36,551.54v-.71a3,3,0,0,0,1.31.38.83.83,0,0,0,.55-.18.55.55,0,0,0,.22-.45c0-.27-.2-.48-.61-.66l-.45-.19c-.67-.27-1-.67-1-1.19a1,1,0,0,1,.4-.87,1.66,1.66,0,0,1,1.07-.32,4.54,4.54,0,0,1,.88.1l.16,0v.64a3.72,3.72,0,0,0-1-.19.86.86,0,0,0-.53.15.43.43,0,0,0-.2.39c0,.23.18.42.56.58l.37.16a2.53,2.53,0,0,1,.89.56,1.09,1.09,0,0,1,.26.74,1.12,1.12,0,0,1-.44.91,1.72,1.72,0,0,1-1.13.36A4.34,4.34,0,0,1,275.36,551.54Z" transform="translate(-49.19 -36.23)"/><path class="ea1b6bc8-00df-4faf-9cda-e2ad5756bb37" d="M282.7,551.55a4.47,4.47,0,0,1-1.32.23,2,2,0,0,1-1.53-.62,2.21,2.21,0,0,1-.59-1.61,2.35,2.35,0,0,1,.52-1.58,1.67,1.67,0,0,1,1.33-.62,1.39,1.39,0,0,1,1.19.55,2.52,2.52,0,0,1,.42,1.56v.23H280c.12,1,.61,1.51,1.48,1.51a3.57,3.57,0,0,0,1.18-.26Zm-2.62-2.44H282c0-.79-.29-1.18-.88-1.18S280.15,548.32,280.08,549.11Z" transform="translate(-49.19 -36.23)"/><path class="ea1b6bc8-00df-4faf-9cda-e2ad5756bb37" d="M284.05,551.69v-4.25h.77v.8a1.45,1.45,0,0,1,1.33-.89l.24,0v.72A1.22,1.22,0,0,0,286,548a1.44,1.44,0,0,0-1.22.86v2.8Z" transform="translate(-49.19 -36.23)"/><path class="ea1b6bc8-00df-4faf-9cda-e2ad5756bb37" d="M288.2,551.69l-1.57-4.25h.77l1.23,3.3,1.3-3.3h.72L289,551.69Z" transform="translate(-49.19 -36.23)"/><path class="ea1b6bc8-00df-4faf-9cda-e2ad5756bb37" d="M294.57,551.55a4.47,4.47,0,0,1-1.32.23,2,2,0,0,1-1.53-.62,2.25,2.25,0,0,1-.59-1.61,2.35,2.35,0,0,1,.52-1.58,1.67,1.67,0,0,1,1.33-.62,1.39,1.39,0,0,1,1.19.55,2.52,2.52,0,0,1,.42,1.56v.23h-2.68c.12,1,.61,1.51,1.48,1.51a3.57,3.57,0,0,0,1.18-.26ZM292,549.11h1.87c0-.79-.29-1.18-.88-1.18S292,548.32,292,549.11Z" transform="translate(-49.19 -36.23)"/><path class="ea1b6bc8-00df-4faf-9cda-e2ad5756bb37" d="M298.65,551.69v-.8a1.51,1.51,0,0,1-1.42.89,1.44,1.44,0,0,1-1.2-.55,2.4,2.4,0,0,1-.44-1.53,2.68,2.68,0,0,1,.49-1.7,1.6,1.6,0,0,1,1.32-.65,1.57,1.57,0,0,1,1.25.58v-2.41h.77v6.17Zm0-3.23a1.74,1.74,0,0,0-1.14-.53.92.92,0,0,0-.81.44,2.2,2.2,0,0,0-.29,1.25c0,1,.33,1.49,1,1.49a1.71,1.71,0,0,0,1.26-.7Z" transform="translate(-49.19 -36.23)"/><path class="ea1b6bc8-00df-4faf-9cda-e2ad5756bb37" d="M301,551.69v-1h1v1Z" transform="translate(-49.19 -36.23)"/></svg>