<svg id="8397c710-5423-4e3f-b1c4-a72b096778d1" data-name="Layer 1" xmlns="http://www.w3.org/2000/svg" viewBox="0 0 304.58 517.1"><defs><style>.\31 c7f2b5a-3f13-498c-82b5-c42125425373{fill:#595554;}</style></defs><title>2020</title><path d="M141.25,369.28h4.65c1.58,0,4.39,0,6.21,2.62a7.19,7.19,0,0,1,1.29,4.37c0,3.84-1.9,7.07-7.24,7.07h-4.92Zm3.59,10.9h1.54c2.68,0,3.44-1.86,3.44-3.86a5,5,0,0,0-.68-2.6,3,3,0,0,0-2.74-1.29h-1.56Z" transform="translate(-49.19 -36.23)"/><path d="M154.72,378a5.68,5.68,0,1,1,5.68,5.62,5.5,5.5,0,0,1-5.68-5.62Zm3.15,0a2.53,2.53,0,1,0,2.53-2.68,2.56,2.56,0,0,0-2.53,2.68Z" transform="translate(-49.19 -36.23)"/><path d="M167.87,372.79h2.94v1.12a3.13,3.13,0,0,1,2.91-1.48c3.55,0,3.91,2.89,3.91,4.31v6.59h-3.15v-5.76c0-1.16-.25-2.18-1.65-2.18-1.56,0-1.8,1.12-1.8,2.2v5.74h-3.15Z" transform="translate(-49.19 -36.23)"/><path d="M180.37,369.28h2.7l-2,4.75h-2.28Z" transform="translate(-49.19 -36.23)"/><path d="M185.33,375.18h-1.56v-2.39h1.56v-3.51h3.15v3.51H190v2.39h-1.52v8.15h-3.15Z" transform="translate(-49.19 -36.23)"/><path d="M197.87,375.18h-1.56v-2.39h1.56v-3.51H201v3.51h1.52v2.39H201v8.15h-3.15Z" transform="translate(-49.19 -36.23)"/><path d="M203.91,369.28h3.15v4.48a3.05,3.05,0,0,1,2.75-1.33,3.33,3.33,0,0,1,3.13,1.5,6.74,6.74,0,0,1,.72,3.51v5.89h-3.15V377.6a3,3,0,0,0-.32-1.54,1.51,1.51,0,0,0-1.37-.67,1.54,1.54,0,0,0-1.54.85,2.75,2.75,0,0,0-.23,1.24v5.85h-3.15Z" transform="translate(-49.19 -36.23)"/><path d="M215.92,369.28h3.15v2.39h-3.15Zm0,3.51h3.15v10.54h-3.15Z" transform="translate(-49.19 -36.23)"/><path d="M221.35,372.79h2.94v1.12a3.13,3.13,0,0,1,2.91-1.48c3.55,0,3.91,2.89,3.91,4.31v6.59H228v-5.76c0-1.16-.25-2.18-1.65-2.18-1.56,0-1.8,1.12-1.8,2.2v5.74h-3.15Z" transform="translate(-49.19 -36.23)"/><path d="M233.48,369.28h3.15v7.33l3-3.82h3.74l-4,4.63,3.86,5.91h-3.57l-3-5.07v5.07h-3.15Z" transform="translate(-49.19 -36.23)"/><path d="M248.09,383.33H244.8V380.1h3.29Z" transform="translate(-49.19 -36.23)"/><path d="M254.05,383.33h-3.29V380.1h3.29Z" transform="translate(-49.19 -36.23)"/><path d="M260,383.33h-3.29V380.1H260Z" transform="translate(-49.19 -36.23)"/><path class="1c7f2b5a-3f13-498c-82b5-c42125425373" d="M90,388.45h7.55v1.28h-3V400H93V389.73H90Z" transform="translate(-49.19 -36.23)"/><path class="1c7f2b5a-3f13-498c-82b5-c42125425373" d="M104.67,400h-1.31v-5.47q0-1.7-1.44-1.7a1.35,1.35,0,0,0-1.28.64,3.57,3.57,0,0,0-.37,1.78V400H99V388.45h1.31V393h.06a2.24,2.24,0,0,1,.88-.94,2.87,2.87,0,0,1,1.31-.26,2.06,2.06,0,0,1,1.61.59,2.82,2.82,0,0,1,.54,1.92Z" transform="translate(-49.19 -36.23)"/><path class="1c7f2b5a-3f13-498c-82b5-c42125425373" d="M106.95,389.86v-1.41h1.47v1.41Zm1.39,2.06V400H107v-8.08Z" transform="translate(-49.19 -36.23)"/><path class="1c7f2b5a-3f13-498c-82b5-c42125425373" d="M116.39,400h-1.31v-5.6q0-1.57-1.42-1.57-1.65,0-1.65,2.38V400h-1.31v-6.4q0-.75-.08-1.68H112v1h.06a2.33,2.33,0,0,1,.87-.94,2.71,2.71,0,0,1,1.29-.26,1.93,1.93,0,0,1,1.69.66,3.41,3.41,0,0,1,.47,2Z" transform="translate(-49.19 -36.23)"/><path class="1c7f2b5a-3f13-498c-82b5-c42125425373" d="M120.08,395.47V400h-1.31V388.45h1.31v7h0l2.46-3.49h1.6l-2.69,3.47,3.17,4.61H123l-2.88-4.53Z" transform="translate(-49.19 -36.23)"/><path class="1c7f2b5a-3f13-498c-82b5-c42125425373" d="M125.84,389.86v-1.41h1.47v1.41Zm1.39,2.06V400h-1.31v-8.08Z" transform="translate(-49.19 -36.23)"/><path class="1c7f2b5a-3f13-498c-82b5-c42125425373" d="M135.28,400H134v-5.6q0-1.57-1.42-1.57-1.65,0-1.65,2.38V400h-1.31v-6.4q0-.75-.08-1.68h1.39v1H131a2.33,2.33,0,0,1,.87-.94,2.71,2.71,0,0,1,1.29-.26,1.93,1.93,0,0,1,1.69.66,3.41,3.41,0,0,1,.47,2Z" transform="translate(-49.19 -36.23)"/><path class="1c7f2b5a-3f13-498c-82b5-c42125425373" d="M141.94,392.91v-1h1.31v8.9a1.92,1.92,0,0,1-.76,1.76,4.18,4.18,0,0,1-2.22.48,2.88,2.88,0,0,1-1.81-.55,1.72,1.72,0,0,1-.64-1.61h1.47a1.15,1.15,0,0,0,.35.86,1.26,1.26,0,0,0,.88.3,1.29,1.29,0,0,0,1.41-1.39V399h0a1.75,1.75,0,0,1-.74.74,2.13,2.13,0,0,1-1,.27,2.57,2.57,0,0,1-1.34-.32,2,2,0,0,1-.81-.94,5.07,5.07,0,0,1-.38-1.34,12,12,0,0,1-.1-1.7,7.13,7.13,0,0,1,.21-1.83,3.72,3.72,0,0,1,.49-1.17,2.25,2.25,0,0,1,.66-.62,2,2,0,0,1,.64-.28,2.84,2.84,0,0,1,.53,0,1.92,1.92,0,0,1,1.89,1.15Zm0,3a6.94,6.94,0,0,0-.22-2.14,1.37,1.37,0,0,0-1.34-.93,1.27,1.27,0,0,0-.74.21,1.43,1.43,0,0,0-.46.48,2.33,2.33,0,0,0-.23.71,6,6,0,0,0-.1.74q0,.3,0,.73a5.67,5.67,0,0,0,.38,2.52,1.27,1.27,0,0,0,1.18.68,1.58,1.58,0,0,0,.66-.13,1,1,0,0,0,.44-.42c.11-.19.19-.36.26-.51a2.24,2.24,0,0,0,.13-.68c0-.3,0-.51,0-.63S142,396.22,142,395.92Z" transform="translate(-49.19 -36.23)"/><path class="1c7f2b5a-3f13-498c-82b5-c42125425373" d="M149.27,389.86v-1.41h1.47v1.41Zm1.39,2.06V400h-1.31v-8.08Z" transform="translate(-49.19 -36.23)"/><path class="1c7f2b5a-3f13-498c-82b5-c42125425373" d="M158.21,397.7a2.22,2.22,0,0,1-.77,1.86,3.24,3.24,0,0,1-2,.6,3.06,3.06,0,0,1-2.09-.64,2.42,2.42,0,0,1-.7-2h1.49q0,1.55,1.34,1.55a1.52,1.52,0,0,0,1-.32,1.12,1.12,0,0,0,.38-.91.92.92,0,0,0-.42-.71,4.77,4.77,0,0,0-1-.59q-.59-.26-1.18-.58a3.21,3.21,0,0,1-1-.82,1.82,1.82,0,0,1-.42-1.18,2.15,2.15,0,0,1,.12-.71,2.42,2.42,0,0,1,.41-.7,2,2,0,0,1,.87-.58,4,4,0,0,1,1.38-.22,3,3,0,0,1,1.9.58,1.86,1.86,0,0,1,.66,1.71h-1.46a1.12,1.12,0,0,0-1.26-1.3,1.37,1.37,0,0,0-.9.29,1,1,0,0,0-.35.8.88.88,0,0,0,.42.7,5.22,5.22,0,0,0,1,.58q.59.26,1.18.57a3.12,3.12,0,0,1,1,.82A1.85,1.85,0,0,1,158.21,397.7Z" transform="translate(-49.19 -36.23)"/><path class="1c7f2b5a-3f13-498c-82b5-c42125425373" d="M162.64,391.92H164v-1.55l1.31-.59v2.14H167v1h-1.76v4.94a2.78,2.78,0,0,0,0,.42,1.5,1.5,0,0,0,.12.35.6.6,0,0,0,.36.3,2.09,2.09,0,0,0,.7.1l.59-.06v1l-.6.07a6.21,6.21,0,0,1-.7.06q-1.81,0-1.81-1.44v-5.74h-1.33Z" transform="translate(-49.19 -36.23)"/><path class="1c7f2b5a-3f13-498c-82b5-c42125425373" d="M174,400h-1.31v-5.47q0-1.7-1.44-1.7a1.35,1.35,0,0,0-1.28.64,3.57,3.57,0,0,0-.37,1.78V400h-1.31V388.45h1.31V393h.06a2.24,2.24,0,0,1,.88-.94,2.87,2.87,0,0,1,1.31-.26,2.06,2.06,0,0,1,1.61.59,2.82,2.82,0,0,1,.54,1.92Z" transform="translate(-49.19 -36.23)"/><path class="1c7f2b5a-3f13-498c-82b5-c42125425373" d="M182.26,396.38h-4.54a4,4,0,0,0,.39,2.14,1.41,1.41,0,0,0,1.24.56,1.25,1.25,0,0,0,1-.44,1.8,1.8,0,0,0,.4-1.1h1.44a2.51,2.51,0,0,1-.76,2,3,3,0,0,1-2.06.65,4.39,4.39,0,0,1-1.22-.14,2.46,2.46,0,0,1-1-.55,2.49,2.49,0,0,1-.68-1.25,8.47,8.47,0,0,1-.22-2.14q0-.82,0-1.37a5.74,5.74,0,0,1,.23-1.16,2.57,2.57,0,0,1,.5-1,2.37,2.37,0,0,1,.9-.59,3.73,3.73,0,0,1,1.39-.23,2.53,2.53,0,0,1,2.27.92,5.66,5.66,0,0,1,.61,3Zm-4.54-1h3.15a3.87,3.87,0,0,0-.39-2.14,1.46,1.46,0,0,0-1.22-.5,1.3,1.3,0,0,0-1.12.55A3.89,3.89,0,0,0,177.71,395.39Z" transform="translate(-49.19 -36.23)"/><path class="1c7f2b5a-3f13-498c-82b5-c42125425373" d="M194,396.38h-4.54a4,4,0,0,0,.39,2.14,1.41,1.41,0,0,0,1.24.56,1.25,1.25,0,0,0,1-.44,1.8,1.8,0,0,0,.4-1.1h1.44a2.51,2.51,0,0,1-.76,2,3,3,0,0,1-2.06.65,4.39,4.39,0,0,1-1.22-.14,2.46,2.46,0,0,1-1-.55,2.49,2.49,0,0,1-.68-1.25,8.47,8.47,0,0,1-.22-2.14q0-.82,0-1.37a5.74,5.74,0,0,1,.23-1.16,2.57,2.57,0,0,1,.5-1,2.37,2.37,0,0,1,.9-.59,3.73,3.73,0,0,1,1.39-.23,2.53,2.53,0,0,1,2.27.92,5.66,5.66,0,0,1,.61,3Zm-4.54-1h3.15a3.87,3.87,0,0,0-.39-2.14,1.46,1.46,0,0,0-1.22-.5,1.3,1.3,0,0,0-1.12.55A3.89,3.89,0,0,0,189.42,395.39Z" transform="translate(-49.19 -36.23)"/><path class="1c7f2b5a-3f13-498c-82b5-c42125425373" d="M201.92,400h-1.31v-5.6q0-1.57-1.42-1.57-1.65,0-1.65,2.38V400h-1.31v-6.4q0-.75-.08-1.68h1.39v1h.06a2.33,2.33,0,0,1,.87-.94,2.71,2.71,0,0,1,1.29-.26,1.93,1.93,0,0,1,1.69.66,3.41,3.41,0,0,1,.47,2Z" transform="translate(-49.19 -36.23)"/><path class="1c7f2b5a-3f13-498c-82b5-c42125425373" d="M210.13,396.38h-4.54a4,4,0,0,0,.39,2.14,1.41,1.41,0,0,0,1.24.56,1.25,1.25,0,0,0,1-.44,1.8,1.8,0,0,0,.4-1.1h1.44a2.51,2.51,0,0,1-.76,2,3,3,0,0,1-2.06.65A4.39,4.39,0,0,1,206,400a2.46,2.46,0,0,1-1-.55,2.49,2.49,0,0,1-.68-1.25,8.47,8.47,0,0,1-.22-2.14q0-.82,0-1.37a5.74,5.74,0,0,1,.23-1.16,2.57,2.57,0,0,1,.5-1,2.37,2.37,0,0,1,.9-.59,3.73,3.73,0,0,1,1.39-.23,2.53,2.53,0,0,1,2.27.92,5.66,5.66,0,0,1,.61,3Zm-4.54-1h3.15a3.87,3.87,0,0,0-.39-2.14,1.46,1.46,0,0,0-1.22-.5,1.3,1.3,0,0,0-1.12.55A3.89,3.89,0,0,0,205.58,395.39Z" transform="translate(-49.19 -36.23)"/><path class="1c7f2b5a-3f13-498c-82b5-c42125425373" d="M217.66,400h-1.31v-5.6q0-1.57-1.28-1.57a1.54,1.54,0,0,0-.65.16,1.12,1.12,0,0,0-.49.38,2.27,2.27,0,0,0-.3,1.18V400h-1.31v-6.4q0-.75-.08-1.68h1.39v1h0a2,2,0,0,1,2-1.17,2.56,2.56,0,0,1,1.14.26,1.47,1.47,0,0,1,.74.78,2,2,0,0,1,1.92-1q2.21,0,2.21,2.1V400h-1.31v-5.6q0-1.57-1.28-1.57a2.37,2.37,0,0,0-.57,0,1.34,1.34,0,0,0-.42.26,1.79,1.79,0,0,0-.45,1.42Z" transform="translate(-49.19 -36.23)"/><path class="1c7f2b5a-3f13-498c-82b5-c42125425373" d="M224.51,391.92l1.94,6.58h0l1.94-6.58h1.42l-3.66,11.14h-1.36l.91-3.06L223,391.92Z" transform="translate(-49.19 -36.23)"/><path class="1c7f2b5a-3f13-498c-82b5-c42125425373" d="M238.9,400a5.19,5.19,0,0,1-2.43,0,2.45,2.45,0,0,1-1-.55,2.48,2.48,0,0,1-.68-1.25,8.47,8.47,0,0,1-.22-2.14q0-.82,0-1.37a5.74,5.74,0,0,1,.23-1.16,2.54,2.54,0,0,1,.5-1,2.35,2.35,0,0,1,.9-.59,4.28,4.28,0,0,1,2.78,0,2.36,2.36,0,0,1,.9.59,2.57,2.57,0,0,1,.5,1,5.81,5.81,0,0,1,.23,1.16q0,.55,0,1.37a8.47,8.47,0,0,1-.22,2.14,2.49,2.49,0,0,1-.68,1.25A2.45,2.45,0,0,1,238.9,400Zm-2.56-1.7a1.55,1.55,0,0,0,2.69,0,7.58,7.58,0,0,0,.35-2.79,3.7,3.7,0,0,0-.43-2.12,1.69,1.69,0,0,0-2.53,0,3.7,3.7,0,0,0-.43,2.12A7.56,7.56,0,0,0,236.34,398.31Z" transform="translate(-49.19 -36.23)"/><path class="1c7f2b5a-3f13-498c-82b5-c42125425373" d="M241.9,391.92h1.25v-1.57q0-2,2.32-2a3.78,3.78,0,0,1,.62,0v.94a1.78,1.78,0,0,0-1.29.25,1.16,1.16,0,0,0-.34.9v1.38h1.63v1h-1.63V400h-1.31v-7.09H241.9Z" transform="translate(-49.19 -36.23)"/><path class="1c7f2b5a-3f13-498c-82b5-c42125425373" d="M256.66,394.51h-1.36a1.91,1.91,0,0,0-.32-1.29,1,1,0,0,0-.8-.39,1.49,1.49,0,0,0-1.26.57,3.7,3.7,0,0,0-.43,2.12,7.58,7.58,0,0,0,.35,2.79,1.33,1.33,0,0,0,1.34.78,1.15,1.15,0,0,0,.79-.42,1.8,1.8,0,0,0,.38-1.36h1.38a3.31,3.31,0,0,1-.24,1.39,2,2,0,0,1-.68.89,3.24,3.24,0,0,1-.83.43,2.52,2.52,0,0,1-.79.14A4.39,4.39,0,0,1,253,400a2.45,2.45,0,0,1-1-.55,2.49,2.49,0,0,1-.68-1.25,8.47,8.47,0,0,1-.22-2.14q0-.82,0-1.37a5.67,5.67,0,0,1,.23-1.16,2.57,2.57,0,0,1,.5-1,2.37,2.37,0,0,1,.9-.59,3.73,3.73,0,0,1,1.39-.23,2.46,2.46,0,0,1,1.89.7A2.7,2.7,0,0,1,256.66,394.51Z" transform="translate(-49.19 -36.23)"/><path class="1c7f2b5a-3f13-498c-82b5-c42125425373" d="M260.51,391.92v1.22h0a2.13,2.13,0,0,1,.91-1.12,3.77,3.77,0,0,1,1.58-.26v1.36l-.18,0-.18,0-.35,0q-1.82,0-1.82,2.19V400H259.2v-8.08Z" transform="translate(-49.19 -36.23)"/><path class="1c7f2b5a-3f13-498c-82b5-c42125425373" d="M270.38,396.38h-4.54a4,4,0,0,0,.39,2.14,1.41,1.41,0,0,0,1.24.56,1.25,1.25,0,0,0,1-.44,1.8,1.8,0,0,0,.4-1.1h1.44a2.51,2.51,0,0,1-.76,2,3,3,0,0,1-2.06.65,4.39,4.39,0,0,1-1.22-.14,2.46,2.46,0,0,1-1-.55,2.49,2.49,0,0,1-.68-1.25,8.47,8.47,0,0,1-.22-2.14q0-.82,0-1.37a5.74,5.74,0,0,1,.23-1.16,2.57,2.57,0,0,1,.5-1,2.37,2.37,0,0,1,.9-.59,3.73,3.73,0,0,1,1.39-.23,2.53,2.53,0,0,1,2.27.92,5.66,5.66,0,0,1,.61,3Zm-4.54-1H269a3.87,3.87,0,0,0-.39-2.14,1.46,1.46,0,0,0-1.22-.5,1.3,1.3,0,0,0-1.12.55A3.89,3.89,0,0,0,265.84,395.39Z" transform="translate(-49.19 -36.23)"/><path class="1c7f2b5a-3f13-498c-82b5-c42125425373" d="M276.8,400v-1.17h0a2,2,0,0,1-2,1.33,2,2,0,0,1-1.71-.7,3.33,3.33,0,0,1-.5-2,2.39,2.39,0,0,1,.28-1.2,2.11,2.11,0,0,1,.67-.75,3.05,3.05,0,0,1,1-.39,6.94,6.94,0,0,1,1.11-.16q.49,0,1.16,0c0-.21,0-.43,0-.64a2.25,2.25,0,0,0-.06-.61,1.83,1.83,0,0,0-.21-.51.92.92,0,0,0-.42-.35,1.63,1.63,0,0,0-.68-.13,1.22,1.22,0,0,0-1,.4,1.34,1.34,0,0,0-.27,1h-1.42a2.42,2.42,0,0,1,.73-1.87,3.1,3.1,0,0,1,2-.56,2.66,2.66,0,0,1,2,.65,2.57,2.57,0,0,1,.58,1.78v3.89a12.72,12.72,0,0,0,.16,1.92Zm0-4a8.06,8.06,0,0,0-1.89.16,1.38,1.38,0,0,0-1,1.46,1.72,1.72,0,0,0,.32,1.06,1.11,1.11,0,0,0,.94.42Q276.93,399.09,276.77,396Z" transform="translate(-49.19 -36.23)"/><path class="1c7f2b5a-3f13-498c-82b5-c42125425373" d="M279.54,391.92h1.33v-1.55l1.31-.59v2.14h1.76v1h-1.76v4.94a2.78,2.78,0,0,0,0,.42,1.5,1.5,0,0,0,.12.35.6.6,0,0,0,.36.3,2.09,2.09,0,0,0,.7.1L284,399v1l-.6.07a6.21,6.21,0,0,1-.7.06q-1.81,0-1.81-1.44v-5.74h-1.33Z" transform="translate(-49.19 -36.23)"/><path class="1c7f2b5a-3f13-498c-82b5-c42125425373" d="M285.13,389.86v-1.41h1.47v1.41Zm1.39,2.06V400h-1.31v-8.08Z" transform="translate(-49.19 -36.23)"/><path class="1c7f2b5a-3f13-498c-82b5-c42125425373" d="M290.35,400l-2.4-8.08h1.47l1.81,6.85h0l2-6.85h1.38L292.06,400Z" transform="translate(-49.19 -36.23)"/><path class="1c7f2b5a-3f13-498c-82b5-c42125425373" d="M296,389.86v-1.41h1.47v1.41Zm1.39,2.06V400H296v-8.08Z" transform="translate(-49.19 -36.23)"/><path class="1c7f2b5a-3f13-498c-82b5-c42125425373" d="M298.51,391.92h1.33v-1.55l1.31-.59v2.14h1.76v1h-1.76v4.94a2.78,2.78,0,0,0,0,.42,1.5,1.5,0,0,0,.12.35.6.6,0,0,0,.36.3,2.09,2.09,0,0,0,.7.1l.59-.06v1l-.6.07a6.21,6.21,0,0,1-.7.06q-1.81,0-1.81-1.44v-5.74h-1.33Z" transform="translate(-49.19 -36.23)"/><path class="1c7f2b5a-3f13-498c-82b5-c42125425373" d="M304.72,391.92l1.94,6.58h0l1.94-6.58H310l-3.66,11.14H305l.91-3.06-2.74-8.08Z" transform="translate(-49.19 -36.23)"/><path d="M88.42,49.67H76.6V36.23h38.88V49.67H103.73V96.16H88.42Z" transform="translate(-49.19 -36.23)"/><path d="M117.58,36.23h33.94V49.67H132.89V59H151V72.43H132.89V82.72h18.63V96.16H117.58Z" transform="translate(-49.19 -36.23)"/><path d="M192.51,72.76l-.32-36.53h14.66V96.16H193.56L170.64,60,171,96.16H156.3V36.23h13.2Z" transform="translate(-49.19 -36.23)"/><path d="M228.31,82.72h19.11V96.16H209.6v-10l20.65-36.45H209.6V36.23h37.82V48.62Z" transform="translate(-49.19 -36.23)"/><path d="M250.1,36.23h15.31V96.16H250.1Z" transform="translate(-49.19 -36.23)"/><path d="M308.42,72.76l-.32-36.53h14.66V96.16H309.47L286.55,60l.32,36.12H272.21V36.23h13.2Z" transform="translate(-49.19 -36.23)"/><path d="M96,116.21a17.32,17.32,0,0,0-3.3-4.23,15.58,15.58,0,0,0-10.49-3.89c-7.86,0-17.08,5.83-17.08,18.18,0,13.11,9.3,18.77,17.17,18.77a16.83,16.83,0,0,0,9.81-2.79A12.66,12.66,0,0,0,97.31,135H78.62V122.21h37.12a40.17,40.17,0,0,1-2.87,17.93c-6.09,13.78-20.13,18.94-30.44,18.94a32.72,32.72,0,0,1-33.23-32.81c0-18.69,15.05-32.22,33.49-32.22,15,0,27.82,10.06,31.29,22.16Z" transform="translate(-49.19 -36.23)"/><path d="M132,135.07,113.29,95.24h17.34l9.3,25.12,9.39-25.12h17.17L148,135.07v22.75H132Z" transform="translate(-49.19 -36.23)"/><path d="M171,157.82H153.62L178.4,95.24h13.78l24,62.58h-17.5l-3-9h-21.9Zm13.61-43.55-6.77,21.82h13.78Z" transform="translate(-49.19 -36.23)"/><path d="M219.15,109.28H206.81v-14H247.4v14H235.14v48.54h-16Z" transform="translate(-49.19 -36.23)"/><path d="M260.25,137.1c0,7.27,4.48,8.54,6.51,8.54a6,6,0,0,0,6.09-6c0-3.3-2.62-4.31-12.26-8.37-4.4-1.78-15.31-6.17-15.31-17.93,0-12.6,11.42-19.28,21.9-19.28,8.63,0,20.8,4.4,21.06,19.45H272.43c-.34-2.11-.85-6.09-5.75-6.09-2.79,0-5.5,1.95-5.5,4.91s1.69,3.64,12.94,8.71c11.67,5.24,14.63,10.66,14.63,17.93,0,10-5.24,20-21.82,20-16.41,0-23-9.64-22.58-21.9Z" transform="translate(-49.19 -36.23)"/><path d="M287.73,127.2c0-20.46,15.73-33.15,33-33.15,19.28,0,33.06,15.05,33.06,32.47S340.07,159,320.62,159c-19.7,0-32.9-15.64-32.9-31.71Zm16-.76C303.71,136,310.22,145,321,145c11.33,0,16.83-10.32,16.83-18.35s-5.5-18.52-17-18.52c-11.08,0-17.08,9.47-17.08,18.27Z" transform="translate(-49.19 -36.23)"/><path class="1c7f2b5a-3f13-498c-82b5-c42125425373" d="M153.1,170.71h-2.28a4,4,0,0,0-.5-2.52,2,2,0,0,0-.9-.55,3.42,3.42,0,0,0-1-.19,3.36,3.36,0,0,0-1.45.3,2.75,2.75,0,0,0-.88.58,1.25,1.25,0,0,0-.29.47.49.49,0,0,1-.06.13,2,2,0,0,0-.11.23,2.69,2.69,0,0,0-.11.4q-.06.28-.11.62c0,.23-.06.54-.08.94s0,.82,0,1.28V177a11.65,11.65,0,0,0,.23,2.53,2.9,2.9,0,0,0,.7,1.45,2.47,2.47,0,0,0,1,.61,4.07,4.07,0,0,0,1.21.16,2.52,2.52,0,0,0,.72-.11,3.81,3.81,0,0,0,.86-.42,2.24,2.24,0,0,0,.83-1.12,5.32,5.32,0,0,0,.32-2h2.28a8,8,0,0,1-.19,2,5.69,5.69,0,0,1-.53,1.45,3.35,3.35,0,0,1-.82,1,4.62,4.62,0,0,1-.91.6,4.07,4.07,0,0,1-1,.3,6.45,6.45,0,0,1-.83.12h-.65l-1,0a6.47,6.47,0,0,1-1-.17,3.77,3.77,0,0,1-1.06-.4,4.55,4.55,0,0,1-.92-.76,3.71,3.71,0,0,1-.78-1.21,9.41,9.41,0,0,1-.49-1.81,13.8,13.8,0,0,1-.2-2.5v-4.9q0-3.48,1.42-4.88a5.66,5.66,0,0,1,4.15-1.4,4.51,4.51,0,0,1,3.61,1.28A5.27,5.27,0,0,1,153.1,170.71Z" transform="translate(-49.19 -36.23)"/><path class="1c7f2b5a-3f13-498c-82b5-c42125425373" d="M161.65,175.29h-2.59v8h-2.21V165.93h6a3.8,3.8,0,0,1,3.14,1.25,4.73,4.73,0,0,1,1,3.07,4.16,4.16,0,0,1-.83,2.63,3.62,3.62,0,0,1-2.34,1.33v0a3,3,0,0,1,2.15,1.09,7,7,0,0,1,.68,3.37q0,.79.2,2.3a14.38,14.38,0,0,0,.4,2.23h-2.3a4.14,4.14,0,0,1-.4-1.37q-.11-.82-.17-2.28t-.11-2.11Q164.1,175.29,161.65,175.29Zm-2.59-7.44v5.52h3.31a2,2,0,0,0,1.74-.83,3.36,3.36,0,0,0,.61-2.05,3,3,0,0,0-.58-1.86,2,2,0,0,0-1.75-.78Z" transform="translate(-49.19 -36.23)"/><path class="1c7f2b5a-3f13-498c-82b5-c42125425373" d="M179.67,183.26H170.6V165.93h8.93v1.92h-6.72v5.57H179v1.92h-6.24v6h6.86Z" transform="translate(-49.19 -36.23)"/><path class="1c7f2b5a-3f13-498c-82b5-c42125425373" d="M181.38,183.26l5.5-17.33h2.81l5.64,17.33h-2.47l-1.25-4.13h-6.7l-1.3,4.13Zm9.62-6L188.22,168h0l-2.71,9.24Z" transform="translate(-49.19 -36.23)"/><path class="1c7f2b5a-3f13-498c-82b5-c42125425373" d="M194.6,165.93h11.33v1.92h-4.56v15.41h-2.21V167.85H194.6Z" transform="translate(-49.19 -36.23)"/><path class="1c7f2b5a-3f13-498c-82b5-c42125425373" d="M211.06,165.93v17.33h-2.21V165.93Z" transform="translate(-49.19 -36.23)"/><path class="1c7f2b5a-3f13-498c-82b5-c42125425373" d="M225.1,182a6.21,6.21,0,0,1-8.26,0q-1.32-1.57-1.32-5.12v-5.69a5.92,5.92,0,0,1,1.38-4.16,6.27,6.27,0,0,1,8.14,0,5.92,5.92,0,0,1,1.38,4.16v5.69Q226.42,180.48,225.1,182Zm-6.55-1.3a3.39,3.39,0,0,0,4.85,0,6.53,6.53,0,0,0,.77-3.73v-5.86a5.12,5.12,0,0,0-.28-1.78,3.22,3.22,0,0,0-.64-1.12,2.49,2.49,0,0,0-.86-.58,3.36,3.36,0,0,0-.8-.24,5.21,5.21,0,0,0-1.22,0,3.34,3.34,0,0,0-.8.24,2.49,2.49,0,0,0-.86.58,3.19,3.19,0,0,0-.64,1.12,5.1,5.1,0,0,0-.28,1.78V177A6.52,6.52,0,0,0,218.55,180.75Z" transform="translate(-49.19 -36.23)"/><path class="1c7f2b5a-3f13-498c-82b5-c42125425373" d="M240.66,165.93h2v17.33h-3l-6.84-15h0v15h-2V165.93h3.12l6.74,14.83h0Z" transform="translate(-49.19 -36.23)"/><path class="1c7f2b5a-3f13-498c-82b5-c42125425373" d="M246.51,178.1h2.18v.5a3,3,0,0,0,.84,2.36,3,3,0,0,0,2.06.73q3.1,0,3.1-2.81a2.51,2.51,0,0,0-.8-1.85,7.66,7.66,0,0,0-1.94-1.37q-1.14-.58-2.28-1.2a6.05,6.05,0,0,1-1.94-1.69,4.05,4.05,0,0,1-.8-2.51,4.36,4.36,0,0,1,1.42-3.47,5.38,5.38,0,0,1,3.67-1.24q5,0,4.8,5.06h-2.3a3.78,3.78,0,0,0-.58-2.34,2.44,2.44,0,0,0-2.09-.8,2.91,2.91,0,0,0-1.9.62,2.33,2.33,0,0,0-.77,1.92,2.49,2.49,0,0,0,.8,1.82,7.45,7.45,0,0,0,1.94,1.36q1.14.56,2.28,1.2a6,6,0,0,1,1.94,1.75,4.38,4.38,0,0,1,.8,2.63,4.33,4.33,0,0,1-1.5,3.68,6.23,6.23,0,0,1-3.88,1.14,6.05,6.05,0,0,1-2.5-.42,4.19,4.19,0,0,1-1.52-1,3.71,3.71,0,0,1-.74-1.44,7.17,7.17,0,0,1-.29-1.4Q246.49,178.82,246.51,178.1Z" transform="translate(-49.19 -36.23)"/><path class="1c7f2b5a-3f13-498c-82b5-c42125425373" d="M100.7,551.83a3,3,0,1,1,2.15-.89A2.92,2.92,0,0,1,100.7,551.83Zm0-.43a2.42,2.42,0,0,0,2-.93,2.57,2.57,0,0,0,0-3.34,2.58,2.58,0,0,0-4,0,2.57,2.57,0,0,0,0,3.34A2.42,2.42,0,0,0,100.7,551.4Zm1.11-1.06a3.06,3.06,0,0,1-1,.19,1.62,1.62,0,0,1-1.21-.48,1.69,1.69,0,0,1-.47-1.23,1.72,1.72,0,0,1,.46-1.26,1.64,1.64,0,0,1,1.23-.47,4.8,4.8,0,0,1,.88.1l.1,0v.48a2.57,2.57,0,0,0-1-.21,1,1,0,0,0-.83.37,1.43,1.43,0,0,0-.31,1,1.33,1.33,0,0,0,.33.95,1.15,1.15,0,0,0,.89.35,1.82,1.82,0,0,0,.88-.24Z" transform="translate(-49.19 -36.23)"/><path class="1c7f2b5a-3f13-498c-82b5-c42125425373" d="M108.78,551.69v-5.17h-2.05v-.61h4.92v.61H109.6v5.17Z" transform="translate(-49.19 -36.23)"/><path class="1c7f2b5a-3f13-498c-82b5-c42125425373" d="M115.59,551.55a4.69,4.69,0,0,1-1.32.23,2,2,0,0,1-1.53-.62,2.25,2.25,0,0,1-.59-1.61,2.36,2.36,0,0,1,.52-1.58,1.67,1.67,0,0,1,1.33-.62,1.41,1.41,0,0,1,1.19.55,2.52,2.52,0,0,1,.42,1.56v.23h-2.68q.17,1.51,1.48,1.51a3.48,3.48,0,0,0,1.18-.26ZM113,549.11h1.87q0-1.18-.88-1.18T113,549.11Z" transform="translate(-49.19 -36.23)"/><path class="1c7f2b5a-3f13-498c-82b5-c42125425373" d="M116.94,551.69v-4.24h.77v.8a1.78,1.78,0,0,1,1.49-.89,1.15,1.15,0,0,1,.88.35,1.32,1.32,0,0,1,.33.94v3h-.77v-2.8a1.23,1.23,0,0,0-.14-.67.52.52,0,0,0-.46-.2,1.7,1.7,0,0,0-1.33.93v2.75Z" transform="translate(-49.19 -36.23)"/><path class="1c7f2b5a-3f13-498c-82b5-c42125425373" d="M121.62,551.69v-.58l2.63-3.09h-2.5v-.58h3.45V548l-2.63,3.09h2.68v.58Z" transform="translate(-49.19 -36.23)"/><path class="1c7f2b5a-3f13-498c-82b5-c42125425373" d="M126.49,546.67v-.77h.77v.77Zm0,5v-4.24h.77v4.24Z" transform="translate(-49.19 -36.23)"/><path class="1c7f2b5a-3f13-498c-82b5-c42125425373" d="M128.8,551.69v-4.24h.77v.8a1.78,1.78,0,0,1,1.49-.89,1.15,1.15,0,0,1,.88.35,1.32,1.32,0,0,1,.33.94v3h-.77v-2.8a1.23,1.23,0,0,0-.14-.67.52.52,0,0,0-.46-.2,1.7,1.7,0,0,0-1.33.93v2.75Z" transform="translate(-49.19 -36.23)"/><path class="1c7f2b5a-3f13-498c-82b5-c42125425373" d="M140.62,551.53a6.8,6.8,0,0,1-1.83.3,2.76,2.76,0,0,1-2.12-.78,3.77,3.77,0,0,1,0-4.49,2.75,2.75,0,0,1,2.1-.79,6.87,6.87,0,0,1,1.82.26v.76a6.25,6.25,0,0,0-1.83-.41,1.77,1.77,0,0,0-1.46.63,2.76,2.76,0,0,0-.52,1.79,2.63,2.63,0,0,0,.55,1.78,2,2,0,0,0,1.55.64,3,3,0,0,0,.89-.14v-1.88h.82Z" transform="translate(-49.19 -36.23)"/><path class="1c7f2b5a-3f13-498c-82b5-c42125425373" d="M142.33,553.23l.69-1.54-1.64-4.24h.83l1.21,3.19,1.29-3.19h.73l-2.32,5.79Z" transform="translate(-49.19 -36.23)"/><path class="1c7f2b5a-3f13-498c-82b5-c42125425373" d="M148.45,551.15a2,2,0,0,1-1.33.64,1.22,1.22,0,0,1-.87-.33,1.1,1.1,0,0,1-.35-.83,1.19,1.19,0,0,1,.58-1.07,3.12,3.12,0,0,1,1.68-.37h.18v-.51q0-.74-.77-.74a2.82,2.82,0,0,0-1.3.38v-.64a3.89,3.89,0,0,1,1.46-.32,1.46,1.46,0,0,1,1,.32,1.32,1.32,0,0,1,.34,1v1.92q0,.66.41.66l.15,0,.05.43a1.33,1.33,0,0,1-.58.13Q148.6,551.78,148.45,551.15Zm-.11-.42v-1.1h-.25a2,2,0,0,0-1,.24.72.72,0,0,0-.39.63.63.63,0,0,0,.2.47.65.65,0,0,0,.48.19A1.6,1.6,0,0,0,148.34,550.73Z" transform="translate(-49.19 -36.23)"/><path class="1c7f2b5a-3f13-498c-82b5-c42125425373" d="M152.57,551.69a2.37,2.37,0,0,1-.62.1,1.22,1.22,0,0,1-.91-.34,1.28,1.28,0,0,1-.33-.93V548h-.53v-.58h.53v-.77l.77-.07v.84h1.11V548h-1.11v2.35q0,.83.72.83a1.67,1.67,0,0,0,.37-.05Z" transform="translate(-49.19 -36.23)"/><path class="1c7f2b5a-3f13-498c-82b5-c42125425373" d="M153.52,551.54v-.71a3,3,0,0,0,1.31.38.84.84,0,0,0,.55-.18.56.56,0,0,0,.22-.45q0-.39-.61-.65l-.45-.19q-1-.41-1-1.19a1.06,1.06,0,0,1,.39-.87,1.66,1.66,0,0,1,1.08-.32,4.91,4.91,0,0,1,.88.1l.16,0v.64a3.82,3.82,0,0,0-1-.19.89.89,0,0,0-.54.15.46.46,0,0,0-.2.39q0,.35.56.59l.37.16a2.49,2.49,0,0,1,.89.56,1.07,1.07,0,0,1,.26.74,1.13,1.13,0,0,1-.44.92,1.73,1.73,0,0,1-1.13.36A4.26,4.26,0,0,1,153.52,551.54Z" transform="translate(-49.19 -36.23)"/><path class="1c7f2b5a-3f13-498c-82b5-c42125425373" d="M159.44,551.78a1.9,1.9,0,0,1-1.48-.6,2.68,2.68,0,0,1,0-3.24,2.13,2.13,0,0,1,3,0,2.68,2.68,0,0,1,0,3.24A1.9,1.9,0,0,1,159.44,551.78Zm0-.58a1,1,0,0,0,.89-.43,2.48,2.48,0,0,0,0-2.42,1.14,1.14,0,0,0-1.78,0,2.49,2.49,0,0,0,0,2.42A1,1,0,0,0,159.44,551.21Z" transform="translate(-49.19 -36.23)"/><path class="1c7f2b5a-3f13-498c-82b5-c42125425373" d="M169.52,551.39a4,4,0,0,1-1.87.44,2.7,2.7,0,0,1-2.08-.79,3.76,3.76,0,0,1,0-4.49,2.76,2.76,0,0,1,2.11-.79,7.85,7.85,0,0,1,1.82.25v.77a6.12,6.12,0,0,0-1.83-.41,1.77,1.77,0,0,0-1.46.64,2.79,2.79,0,0,0-.52,1.8,2.58,2.58,0,0,0,.55,1.75,1.89,1.89,0,0,0,1.51.64,3.73,3.73,0,0,0,1.75-.5Z" transform="translate(-49.19 -36.23)"/><path class="1c7f2b5a-3f13-498c-82b5-c42125425373" d="M170.73,551.69v-4.24h.77v.8a1.44,1.44,0,0,1,1.33-.89l.25,0v.72a1.14,1.14,0,0,0-.35-.07,1.42,1.42,0,0,0-1.22.87v2.79Z" transform="translate(-49.19 -36.23)"/><path class="1c7f2b5a-3f13-498c-82b5-c42125425373" d="M177.11,551.55a4.69,4.69,0,0,1-1.32.23,2,2,0,0,1-1.53-.62,2.25,2.25,0,0,1-.59-1.61,2.36,2.36,0,0,1,.52-1.58,1.67,1.67,0,0,1,1.33-.62,1.41,1.41,0,0,1,1.19.55,2.52,2.52,0,0,1,.42,1.56v.23h-2.68q.17,1.51,1.48,1.51a3.48,3.48,0,0,0,1.18-.26Zm-2.62-2.44h1.87q0-1.18-.88-1.18T174.49,549.11Z" transform="translate(-49.19 -36.23)"/><path class="1c7f2b5a-3f13-498c-82b5-c42125425373" d="M180.65,551.15a2,2,0,0,1-1.33.64,1.22,1.22,0,0,1-.87-.33,1.1,1.1,0,0,1-.35-.83,1.19,1.19,0,0,1,.58-1.07,3.12,3.12,0,0,1,1.68-.37h.18v-.51q0-.74-.77-.74a2.82,2.82,0,0,0-1.3.38v-.64a3.89,3.89,0,0,1,1.46-.32,1.46,1.46,0,0,1,1,.32,1.32,1.32,0,0,1,.34,1v1.92q0,.66.41.66l.15,0,.05.43a1.33,1.33,0,0,1-.58.13Q180.8,551.78,180.65,551.15Zm-.11-.42v-1.1h-.25a2,2,0,0,0-1,.24.72.72,0,0,0-.39.63.63.63,0,0,0,.2.47.65.65,0,0,0,.48.19A1.6,1.6,0,0,0,180.54,550.73Z" transform="translate(-49.19 -36.23)"/><path class="1c7f2b5a-3f13-498c-82b5-c42125425373" d="M184.77,551.69a2.37,2.37,0,0,1-.62.1,1.22,1.22,0,0,1-.91-.34,1.28,1.28,0,0,1-.33-.93V548h-.53v-.58h.53v-.77l.77-.07v.84h1.11V548h-1.11v2.35q0,.83.72.83a1.67,1.67,0,0,0,.37-.05Z" transform="translate(-49.19 -36.23)"/><path class="1c7f2b5a-3f13-498c-82b5-c42125425373" d="M185.87,546.67v-.77h.77v.77Zm0,5v-4.24h.77v4.24Z" transform="translate(-49.19 -36.23)"/><path class="1c7f2b5a-3f13-498c-82b5-c42125425373" d="M189.87,551.78a1.9,1.9,0,0,1-1.48-.6,2.68,2.68,0,0,1,0-3.24,2.13,2.13,0,0,1,3,0,2.68,2.68,0,0,1,0,3.24A1.9,1.9,0,0,1,189.87,551.78Zm0-.58a1,1,0,0,0,.89-.43,2.48,2.48,0,0,0,0-2.42,1.14,1.14,0,0,0-1.78,0,2.49,2.49,0,0,0,0,2.42A1,1,0,0,0,189.87,551.21Z" transform="translate(-49.19 -36.23)"/><path class="1c7f2b5a-3f13-498c-82b5-c42125425373" d="M193.1,551.69v-4.24h.77v.8a1.78,1.78,0,0,1,1.49-.89,1.15,1.15,0,0,1,.88.35,1.32,1.32,0,0,1,.33.94v3h-.77v-2.8a1.23,1.23,0,0,0-.14-.67.52.52,0,0,0-.46-.2,1.7,1.7,0,0,0-1.33.93v2.75Z" transform="translate(-49.19 -36.23)"/><path class="1c7f2b5a-3f13-498c-82b5-c42125425373" d="M197.91,551.54v-.71a3,3,0,0,0,1.31.38.84.84,0,0,0,.55-.18.56.56,0,0,0,.22-.45q0-.39-.61-.65l-.45-.19q-1-.41-1-1.19a1.06,1.06,0,0,1,.39-.87,1.66,1.66,0,0,1,1.08-.32,4.91,4.91,0,0,1,.88.1l.16,0v.64a3.82,3.82,0,0,0-1-.19.89.89,0,0,0-.54.15.46.46,0,0,0-.2.39q0,.35.56.59l.37.16a2.49,2.49,0,0,1,.89.56,1.07,1.07,0,0,1,.26.74,1.13,1.13,0,0,1-.44.92,1.73,1.73,0,0,1-1.13.36A4.26,4.26,0,0,1,197.91,551.54Z" transform="translate(-49.19 -36.23)"/><path class="1c7f2b5a-3f13-498c-82b5-c42125425373" d="M204.57,551.69V551a5.28,5.28,0,0,1,1.36-1.71l.44-.39a2.14,2.14,0,0,0,.85-1.53,1,1,0,0,0-.29-.76,1.12,1.12,0,0,0-.8-.28,3,3,0,0,0-1.41.46v-.68a3.56,3.56,0,0,1,1.53-.36,1.88,1.88,0,0,1,1.3.44,1.48,1.48,0,0,1,.49,1.16,1.71,1.71,0,0,1-.25.92,4.57,4.57,0,0,1-.92,1l-.3.25a2.88,2.88,0,0,0-1.07,1.5H208v.68Z" transform="translate(-49.19 -36.23)"/><path class="1c7f2b5a-3f13-498c-82b5-c42125425373" d="M211.49,551.83A1.69,1.69,0,0,1,210,551a4.63,4.63,0,0,1,0-4.4,1.71,1.71,0,0,1,2.94,0,4.65,4.65,0,0,1,0,4.4A1.69,1.69,0,0,1,211.49,551.83Zm0-.58q1.21,0,1.21-2.46t-1.21-2.46q-1.2,0-1.2,2.46T211.49,551.25Z" transform="translate(-49.19 -36.23)"/><path class="1c7f2b5a-3f13-498c-82b5-c42125425373" d="M214.68,551.69V551A5.28,5.28,0,0,1,216,549.3l.44-.39a2.14,2.14,0,0,0,.85-1.53,1,1,0,0,0-.29-.76,1.12,1.12,0,0,0-.8-.28,3,3,0,0,0-1.41.46v-.68a3.56,3.56,0,0,1,1.53-.36,1.88,1.88,0,0,1,1.3.44,1.48,1.48,0,0,1,.49,1.16,1.71,1.71,0,0,1-.25.92,4.57,4.57,0,0,1-.92,1l-.3.25a2.88,2.88,0,0,0-1.07,1.5h2.51v.68Z" transform="translate(-49.19 -36.23)"/><path class="1c7f2b5a-3f13-498c-82b5-c42125425373" d="M221.61,551.83a1.69,1.69,0,0,1-1.47-.83,4.63,4.63,0,0,1,0-4.4,1.71,1.71,0,0,1,2.94,0,4.65,4.65,0,0,1,0,4.4A1.69,1.69,0,0,1,221.61,551.83Zm0-.58q1.21,0,1.21-2.46t-1.21-2.46q-1.2,0-1.2,2.46T221.61,551.25Z" transform="translate(-49.19 -36.23)"/><path class="1c7f2b5a-3f13-498c-82b5-c42125425373" d="M224.92,551.69v-1h1v1Z" transform="translate(-49.19 -36.23)"/><path class="1c7f2b5a-3f13-498c-82b5-c42125425373" d="M229.27,551.69l2.29-5.78h.81l2.26,5.78h-.88l-.63-1.6h-2.45l-.64,1.6Zm1.63-2.21h2l-1-2.5Z" transform="translate(-49.19 -36.23)"/><path class="1c7f2b5a-3f13-498c-82b5-c42125425373" d="M235.49,551.69v-6.17h.77v6.17Z" transform="translate(-49.19 -36.23)"/><path class="1c7f2b5a-3f13-498c-82b5-c42125425373" d="M237.8,551.69v-6.17h.77v6.17Z" transform="translate(-49.19 -36.23)"/><path class="1c7f2b5a-3f13-498c-82b5-c42125425373" d="M242.64,551.69v-4.24h.77v.8a1.44,1.44,0,0,1,1.33-.89l.25,0v.72a1.14,1.14,0,0,0-.35-.07,1.42,1.42,0,0,0-1.22.87v2.79Z" transform="translate(-49.19 -36.23)"/><path class="1c7f2b5a-3f13-498c-82b5-c42125425373" d="M245.92,546.67v-.77h.77v.77Zm0,5v-4.24h.77v4.24Z" transform="translate(-49.19 -36.23)"/><path class="1c7f2b5a-3f13-498c-82b5-c42125425373" d="M248.25,553.1l.09-.66a3.11,3.11,0,0,0,1.32.31q1.3,0,1.3-1.38v-.67a1.53,1.53,0,0,1-.57.66,1.6,1.6,0,0,1-2-.32,2.31,2.31,0,0,1-.45-1.5,2.37,2.37,0,0,1,.51-1.58,1.65,1.65,0,0,1,1.33-.61,1.58,1.58,0,0,1,1.22.58v-.48h.77v3.09a7.59,7.59,0,0,1-.1,1.47,1.62,1.62,0,0,1-.39.78,2.07,2.07,0,0,1-1.57.54A4.43,4.43,0,0,1,248.25,553.1Zm2.71-2.88v-1.76a1.52,1.52,0,0,0-1.11-.53,1,1,0,0,0-.83.42,2,2,0,0,0-.3,1.18q0,1.38,1,1.38A1.67,1.67,0,0,0,251,550.21Z" transform="translate(-49.19 -36.23)"/><path class="1c7f2b5a-3f13-498c-82b5-c42125425373" d="M253.22,551.69v-6.17H254v2.72a1.78,1.78,0,0,1,1.49-.89,1.15,1.15,0,0,1,.88.35,1.32,1.32,0,0,1,.33.94v3h-.77v-2.8a1.23,1.23,0,0,0-.14-.67.52.52,0,0,0-.46-.2,1.7,1.7,0,0,0-1.33.93v2.75Z" transform="translate(-49.19 -36.23)"/><path class="1c7f2b5a-3f13-498c-82b5-c42125425373" d="M260.07,551.69a2.37,2.37,0,0,1-.62.1,1.22,1.22,0,0,1-.91-.34,1.28,1.28,0,0,1-.33-.93V548h-.53v-.58h.53v-.77l.77-.07v.84h1.11V548H259v2.35q0,.83.72.83a1.67,1.67,0,0,0,.37-.05Z" transform="translate(-49.19 -36.23)"/><path class="1c7f2b5a-3f13-498c-82b5-c42125425373" d="M261,551.54v-.71a3,3,0,0,0,1.31.38.84.84,0,0,0,.55-.18.56.56,0,0,0,.22-.45q0-.39-.61-.65l-.45-.19q-1-.41-1-1.19a1.06,1.06,0,0,1,.39-.87,1.66,1.66,0,0,1,1.08-.32,4.9,4.9,0,0,1,.88.1l.16,0v.64a3.83,3.83,0,0,0-1-.19.89.89,0,0,0-.54.15.46.46,0,0,0-.2.39q0,.35.56.59l.37.16a2.5,2.5,0,0,1,.89.56,1.07,1.07,0,0,1,.26.74,1.13,1.13,0,0,1-.44.92,1.73,1.73,0,0,1-1.13.36A4.26,4.26,0,0,1,261,551.54Z" transform="translate(-49.19 -36.23)"/><path class="1c7f2b5a-3f13-498c-82b5-c42125425373" d="M267.79,551.69v-4.24h.77v.8a1.44,1.44,0,0,1,1.33-.89l.25,0v.72a1.14,1.14,0,0,0-.35-.07,1.42,1.42,0,0,0-1.22.87v2.79Z" transform="translate(-49.19 -36.23)"/><path class="1c7f2b5a-3f13-498c-82b5-c42125425373" d="M274.17,551.55a4.69,4.69,0,0,1-1.32.23,2,2,0,0,1-1.53-.62,2.25,2.25,0,0,1-.59-1.61,2.36,2.36,0,0,1,.52-1.58,1.67,1.67,0,0,1,1.33-.62,1.41,1.41,0,0,1,1.19.55,2.51,2.51,0,0,1,.42,1.56v.23h-2.68q.17,1.51,1.48,1.51a3.48,3.48,0,0,0,1.18-.26Zm-2.62-2.44h1.87q0-1.18-.88-1.18T271.54,549.11Z" transform="translate(-49.19 -36.23)"/><path class="1c7f2b5a-3f13-498c-82b5-c42125425373" d="M275.36,551.54v-.71a3,3,0,0,0,1.31.38.84.84,0,0,0,.55-.18.56.56,0,0,0,.22-.45q0-.39-.61-.65l-.45-.19q-1-.41-1-1.19a1.06,1.06,0,0,1,.39-.87,1.66,1.66,0,0,1,1.08-.32,4.9,4.9,0,0,1,.88.1l.16,0v.64a3.83,3.83,0,0,0-1-.19.89.89,0,0,0-.54.15.46.46,0,0,0-.2.39q0,.35.56.59l.37.16a2.5,2.5,0,0,1,.89.56,1.07,1.07,0,0,1,.26.74,1.13,1.13,0,0,1-.44.92,1.73,1.73,0,0,1-1.13.36A4.26,4.26,0,0,1,275.36,551.54Z" transform="translate(-49.19 -36.23)"/><path class="1c7f2b5a-3f13-498c-82b5-c42125425373" d="M282.7,551.55a4.69,4.69,0,0,1-1.32.23,2,2,0,0,1-1.53-.62,2.25,2.25,0,0,1-.59-1.61,2.36,2.36,0,0,1,.52-1.58,1.67,1.67,0,0,1,1.33-.62,1.41,1.41,0,0,1,1.19.55,2.51,2.51,0,0,1,.42,1.56v.23H280q.17,1.51,1.48,1.51a3.48,3.48,0,0,0,1.18-.26Zm-2.62-2.44h1.87q0-1.18-.88-1.18T280.08,549.11Z" transform="translate(-49.19 -36.23)"/><path class="1c7f2b5a-3f13-498c-82b5-c42125425373" d="M284.05,551.69v-4.24h.77v.8a1.44,1.44,0,0,1,1.33-.89l.25,0v.72A1.14,1.14,0,0,0,286,548a1.42,1.42,0,0,0-1.22.87v2.79Z" transform="translate(-49.19 -36.23)"/><path class="1c7f2b5a-3f13-498c-82b5-c42125425373" d="M288.2,551.69l-1.58-4.24h.77l1.23,3.3,1.3-3.3h.72L289,551.69Z" transform="translate(-49.19 -36.23)"/><path class="1c7f2b5a-3f13-498c-82b5-c42125425373" d="M294.57,551.55a4.69,4.69,0,0,1-1.32.23,2,2,0,0,1-1.53-.62,2.25,2.25,0,0,1-.59-1.61,2.36,2.36,0,0,1,.52-1.58,1.67,1.67,0,0,1,1.33-.62,1.41,1.41,0,0,1,1.19.55,2.51,2.51,0,0,1,.42,1.56v.23h-2.68q.17,1.51,1.48,1.51a3.48,3.48,0,0,0,1.18-.26Zm-2.62-2.44h1.87q0-1.18-.88-1.18T291.95,549.11Z" transform="translate(-49.19 -36.23)"/><path class="1c7f2b5a-3f13-498c-82b5-c42125425373" d="M298.65,551.69v-.8a1.51,1.51,0,0,1-1.42.89,1.45,1.45,0,0,1-1.21-.56,2.4,2.4,0,0,1-.44-1.53,2.7,2.7,0,0,1,.5-1.7,1.65,1.65,0,0,1,2.56-.07v-2.41h.77v6.17Zm0-3.23a1.77,1.77,0,0,0-1.13-.53.92.92,0,0,0-.82.44,2.28,2.28,0,0,0-.29,1.25q0,1.49,1,1.49a1.72,1.72,0,0,0,1.26-.7Z" transform="translate(-49.19 -36.23)"/><path class="1c7f2b5a-3f13-498c-82b5-c42125425373" d="M301,551.69v-1h1v1Z" transform="translate(-49.19 -36.23)"/></svg>