<?xml version="1.0" encoding="UTF-8" standalone="no"?><!DOCTYPE svg PUBLIC "-//W3C//DTD SVG 1.1//EN" "http://www.w3.org/Graphics/SVG/1.1/DTD/svg11.dtd"><svg width="100%" height="100%" viewBox="0 0 1270 2155" version="1.1" xmlns="http://www.w3.org/2000/svg" xmlns:xlink="http://www.w3.org/1999/xlink" xml:space="preserve" xmlns:serif="http://www.serif.com/" style="fill-rule:evenodd;clip-rule:evenodd;stroke-linejoin:round;stroke-miterlimit:2;"><path d="M387.095,1446.293l20.504,0c22.246,0 30.162,-13.458 30.162,-29.45c0,-6.412 -1.346,-12.667 -5.383,-18.208c-7.6,-10.925 -19.317,-10.925 -25.887,-10.925l-19.396,0l0,58.583Zm14.962,-45.442l6.492,0c6.65,0 9.658,2.771 11.4,5.383c2.137,3.325 2.85,7.521 2.85,10.846c0,8.312 -3.167,16.071 -14.329,16.071l-6.413,0l0,-32.3Z" style="fill-rule:nonzero;"/><path d="M443.224,1424.285c0,10.767 7.679,23.354 23.671,23.354c15.992,0 23.671,-12.587 23.671,-23.354c0,-10.767 -7.679,-23.354 -23.671,-23.354c-15.992,0 -23.671,12.587 -23.671,23.275l0,0.079Zm13.142,0c0,-6.412 4.829,-11.083 10.529,-11.083c5.7,0 10.529,4.671 10.529,11.083c0,6.413 -4.829,11.083 -10.529,11.083c-5.7,0 -10.529,-4.671 -10.529,-11.004l0,-0.079Z" style="fill-rule:nonzero;"/><path d="M498.008,1446.293l13.142,0l0,-23.908c0,-4.513 1.029,-9.183 7.521,-9.183c5.858,0 6.888,4.275 6.888,9.104l0,23.987l13.142,0l0,-27.471c0,-5.938 -1.504,-17.971 -16.308,-17.971c-7.837,0 -10.608,4.037 -12.112,6.175l0,-4.671l-12.271,0l0,43.938Z" style="fill-rule:nonzero;"/><path d="M543.451,1407.502l9.5,0l8.392,-19.792l-11.242,0l-6.65,19.792Z" style="fill-rule:nonzero;"/><path d="M570.764,1446.293l13.142,0l0,-33.963l6.333,0l0,-9.975l-6.333,0l0,-14.646l-13.142,0l0,14.646l-6.492,0l0,9.975l6.492,0l0,33.963Z" style="fill-rule:nonzero;"/><path d="M623.015,1446.293l13.142,0l0,-33.963l6.333,0l0,-9.975l-6.333,0l0,-14.646l-13.142,0l0,14.646l-6.492,0l0,9.975l6.492,0l0,33.963Z" style="fill-rule:nonzero;"/><path d="M648.191,1446.293l13.142,0l0,-24.383c0,-1.108 0,-3.246 0.95,-5.146c0.871,-1.9 2.771,-3.562 6.412,-3.562c2.85,0 4.592,1.108 5.7,2.771c1.029,1.662 1.346,3.958 1.346,6.412l0,23.908l13.142,0l0,-24.542c0,-5.621 -0.633,-10.846 -3.008,-14.646c-2.375,-3.879 -6.333,-6.254 -13.062,-6.254c-4.671,0 -9.104,1.583 -11.479,5.542l0,-18.683l-13.142,0l0,58.583Z" style="fill-rule:nonzero;"/><path d="M698.225,1397.685l13.142,0l0,-9.975l-13.142,0l0,9.975Zm0,48.608l13.142,0l0,-43.938l-13.142,0l0,43.938Z" style="fill-rule:nonzero;"/><path d="M720.867,1446.293l13.142,0l0,-23.908c0,-4.513 1.029,-9.183 7.521,-9.183c5.858,0 6.887,4.275 6.887,9.104l0,23.987l13.142,0l0,-27.471c0,-5.938 -1.504,-17.971 -16.308,-17.971c-7.837,0 -10.608,4.037 -12.112,6.175l0,-4.671l-12.271,0l0,43.938Z" style="fill-rule:nonzero;"/><path d="M771.376,1446.293l13.142,0l0,-21.138l12.587,21.138l14.883,0l-16.071,-24.621l16.546,-19.317l-15.596,0l-12.35,15.912l0,-30.558l-13.142,0l0,58.583Z" style="fill-rule:nonzero;"/><rect x="818.56" y="1432.835" width="13.696" height="13.458" style="fill-rule:nonzero;"/><rect x="843.419" y="1432.835" width="13.696" height="13.458" style="fill-rule:nonzero;"/><rect x="868.278" y="1432.835" width="13.696" height="13.458" style="fill-rule:nonzero;"/><path d="M175.163,1467.606l31.467,0l0,5.333l-12.667,0l0,42.8l-6.133,0l0,-42.8l-12.667,0l0,-5.333Z" style="fill:#595554;fill-rule:nonzero;"/><path d="M236.429,1515.739l-5.467,0l0,-22.8c0,-4.711 -2,-7.067 -6,-7.067c-2.533,0 -4.311,0.889 -5.333,2.667c-1.022,1.778 -1.533,4.244 -1.533,7.4l0,19.8l-5.467,0l0,-48.133l5.467,0l0,18.8l0.267,0c1.067,-1.911 2.289,-3.222 3.667,-3.933c1.378,-0.711 3.2,-1.067 5.467,-1.067c2.978,0 5.211,0.822 6.7,2.467c1.489,1.644 2.233,4.311 2.233,8l0,23.867Z" style="fill:#595554;fill-rule:nonzero;"/><path d="M251.696,1482.072l0,33.667l-5.467,0l0,-33.667l5.467,0Zm-5.8,-8.6l0,-5.867l6.133,0l0,5.867l-6.133,0Z" style="fill:#595554;fill-rule:nonzero;"/><path d="M285.229,1515.739l-5.467,0l0,-23.333c0,-4.356 -1.978,-6.533 -5.933,-6.533c-4.578,0 -6.867,3.311 -6.867,9.933l0,19.933l-5.467,0l0,-26.667c0,-2.089 -0.111,-4.422 -0.333,-7l5.8,0l0,4.333l0.267,0c1.067,-1.867 2.278,-3.167 3.633,-3.9c1.356,-0.733 3.144,-1.1 5.367,-1.1c3.378,0 5.722,0.922 7.033,2.767c1.311,1.844 1.967,4.589 1.967,8.233l0,23.333Z" style="fill:#595554;fill-rule:nonzero;"/><path d="M300.696,1496.872l0,18.867l-5.533,0l0,-48.133l5.467,0l0,29l0.133,0l10.267,-14.533l6.667,0l-11.2,14.467l13.2,19.2l-6.933,0l-12.067,-18.867Z" style="fill:#595554;fill-rule:nonzero;"/><path d="M330.429,1482.072l0,33.667l-5.467,0l0,-33.667l5.467,0Zm-5.8,-8.6l0,-5.867l6.133,0l0,5.867l-6.133,0Z" style="fill:#595554;fill-rule:nonzero;"/><path d="M363.963,1515.739l-5.467,0l0,-23.333c0,-4.356 -1.978,-6.533 -5.933,-6.533c-4.578,0 -6.867,3.311 -6.867,9.933l0,19.933l-5.467,0l0,-26.667c0,-2.089 -0.111,-4.422 -0.333,-7l5.8,0l0,4.333l0.267,0c1.067,-1.867 2.278,-3.167 3.633,-3.9c1.356,-0.733 3.144,-1.1 5.367,-1.1c3.378,0 5.722,0.922 7.033,2.767c1.311,1.844 1.967,4.589 1.967,8.233l0,23.333Z" style="fill:#595554;fill-rule:nonzero;"/><path d="M391.763,1498.739c0,-4.311 -0.311,-7.289 -0.933,-8.933c-1.022,-2.533 -2.889,-3.8 -5.6,-3.8c-1.2,0 -2.222,0.288 -3.067,0.865c-0.844,0.576 -1.478,1.241 -1.9,1.995c-0.422,0.753 -0.744,1.74 -0.967,2.959c-0.222,1.219 -0.333,2.238 -0.333,3.058l0,3.025c0,5.097 0.511,8.588 1.533,10.472c1.022,1.884 2.644,2.826 4.867,2.826c1.067,0 1.989,-0.178 2.767,-0.533c0.778,-0.356 1.389,-0.933 1.833,-1.733c0.444,-0.8 0.8,-1.511 1.067,-2.133c0.267,-0.622 0.444,-1.567 0.533,-2.833c0.089,-1.267 0.144,-2.144 0.167,-2.633c0.022,-0.489 0.033,-1.356 0.033,-2.6Zm-0.133,-12.533l0,-4.133l5.533,0l0,37.067c0,3.556 -1.056,6 -3.167,7.333c-2.111,1.333 -5.189,2 -9.233,2c-3.022,0 -5.533,-0.767 -7.533,-2.3c-2,-1.533 -2.889,-3.767 -2.667,-6.7l6.133,0c0,1.556 0.469,2.756 1.408,3.6c0.939,0.844 2.169,1.267 3.69,1.267c1.878,0 3.331,-0.522 4.359,-1.567c1.028,-1.044 1.543,-2.456 1.543,-4.233l0,-7l-0.2,0c-0.667,1.289 -1.689,2.311 -3.067,3.067c-1.378,0.756 -2.822,1.133 -4.333,1.133c-2.222,0 -4.078,-0.444 -5.567,-1.333c-1.489,-0.889 -2.611,-2.189 -3.367,-3.9c-0.756,-1.711 -1.278,-3.567 -1.567,-5.567c-0.289,-2 -0.433,-4.356 -0.433,-7.067c0,-2.933 0.29,-5.478 0.87,-7.633c0.58,-2.156 1.26,-3.778 2.041,-4.867c0.781,-1.089 1.706,-1.956 2.776,-2.6c1.071,-0.644 1.963,-1.033 2.677,-1.167c0.714,-0.133 1.45,-0.2 2.208,-0.2c3.747,0 6.378,1.6 7.895,4.8Z" style="fill:#595554;fill-rule:nonzero;"/><path d="M428.378,1482.072l0,33.667l-5.467,0l0,-33.667l5.467,0Zm-5.8,-8.6l0,-5.867l6.133,0l0,5.867l-6.133,0Z" style="fill:#595554;fill-rule:nonzero;"/><path d="M459.845,1506.139c0,3.511 -1.064,6.1 -3.191,7.767c-2.127,1.667 -4.964,2.5 -8.509,2.5c-3.767,0 -6.659,-0.889 -8.676,-2.667c-2.016,-1.778 -3.024,-4.533 -3.024,-8.267l6.267,0c0,4.311 1.867,6.467 5.6,6.467c1.733,0 3.133,-0.444 4.2,-1.333c1.067,-0.889 1.6,-2.156 1.6,-3.8c0,-1.067 -0.578,-2.056 -1.733,-2.967c-1.156,-0.911 -2.556,-1.733 -4.2,-2.467c-1.644,-0.733 -3.289,-1.533 -4.933,-2.4c-1.644,-0.867 -3.044,-2.011 -4.2,-3.433c-1.156,-1.422 -1.733,-3.067 -1.733,-4.933c0,-1.022 0.167,-2.011 0.5,-2.967c0.333,-0.956 0.9,-1.933 1.7,-2.933c0.8,-1 2.011,-1.8 3.633,-2.4c1.622,-0.6 3.544,-0.9 5.767,-0.9c3.244,0 5.889,0.8 7.933,2.4c2.044,1.6 2.956,3.978 2.733,7.133l-6,0c0,-3.6 -1.789,-5.4 -5.366,-5.4c-1.502,0 -2.739,0.4 -3.71,1.2c-0.972,0.8 -1.457,1.911 -1.457,3.333c0,1.067 0.578,2.033 1.733,2.9c1.156,0.867 2.556,1.667 4.2,2.4c1.644,0.733 3.289,1.522 4.933,2.367c1.644,0.844 3.044,1.978 4.2,3.4c1.156,1.422 1.733,3.089 1.733,5Z" style="fill:#595554;fill-rule:nonzero;"/><path d="M478.66,1482.072l5.533,0l0,-6.467l5.467,-2.467l0,8.933l7.333,0l0,4.133l-7.333,0l0,20.6c0,0.756 0.033,1.333 0.1,1.733c0.067,0.4 0.233,0.889 0.5,1.467c0.267,0.578 0.767,1 1.5,1.267c0.733,0.267 1.7,0.4 2.9,0.4c0.044,0 0.867,-0.089 2.467,-0.267l0,4.2c-0.4,0.044 -1.233,0.144 -2.5,0.3c-1.267,0.156 -2.233,0.233 -2.9,0.233c-5.022,0 -7.533,-2 -7.533,-6l0,-23.933l-5.533,0l0,-4.133Z" style="fill:#595554;fill-rule:nonzero;"/><path d="M526.193,1515.739l-5.467,0l0,-22.8c0,-4.711 -2,-7.067 -6,-7.067c-2.533,0 -4.311,0.889 -5.333,2.667c-1.022,1.778 -1.533,4.244 -1.533,7.4l0,19.8l-5.467,0l0,-48.133l5.467,0l0,18.8l0.267,0c1.067,-1.911 2.289,-3.222 3.667,-3.933c1.378,-0.711 3.2,-1.067 5.467,-1.067c2.978,0 5.211,0.822 6.7,2.467c1.489,1.644 2.233,4.311 2.233,8l0,23.867Z" style="fill:#595554;fill-rule:nonzero;"/><path d="M541.46,1496.539l13.133,0c0,-4.533 -0.547,-7.5 -1.642,-8.9c-1.094,-1.4 -2.803,-2.1 -5.126,-2.1c-2.01,0 -3.574,0.767 -4.691,2.3c-1.117,1.533 -1.675,4.433 -1.675,8.7Zm18.933,4.133l-18.933,0c0,4.4 0.547,7.378 1.642,8.933c1.095,1.556 2.827,2.333 5.195,2.333c1.787,0 3.194,-0.611 4.222,-1.833c1.028,-1.222 1.542,-2.744 1.542,-4.567l6,0c0,3.644 -1.033,6.367 -3.1,8.167c-2.067,1.8 -4.922,2.7 -8.567,2.7c-2,0 -3.689,-0.2 -5.067,-0.6c-1.378,-0.4 -2.7,-1.167 -3.967,-2.3c-1.267,-1.133 -2.211,-2.867 -2.833,-5.2c-0.622,-2.333 -0.933,-5.3 -0.933,-8.9c0,-2.267 0.067,-4.167 0.2,-5.7c0.133,-1.533 0.456,-3.144 0.967,-4.833c0.511,-1.689 1.211,-3.033 2.1,-4.033c0.889,-1 2.133,-1.822 3.733,-2.467c1.6,-0.644 3.533,-0.967 5.8,-0.967c4.622,0 7.778,1.278 9.467,3.833c1.689,2.556 2.533,6.744 2.533,12.567l0,2.867Z" style="fill:#595554;fill-rule:nonzero;"/><path d="M590.609,1496.539l13.133,0c0,-4.533 -0.547,-7.5 -1.642,-8.9c-1.094,-1.4 -2.803,-2.1 -5.126,-2.1c-2.01,0 -3.574,0.767 -4.691,2.3c-1.117,1.533 -1.675,4.433 -1.675,8.7Zm18.933,4.133l-18.933,0c0,4.4 0.547,7.378 1.642,8.933c1.095,1.556 2.827,2.333 5.195,2.333c1.787,0 3.194,-0.611 4.222,-1.833c1.028,-1.222 1.542,-2.744 1.542,-4.567l6,0c0,3.644 -1.033,6.367 -3.1,8.167c-2.067,1.8 -4.922,2.7 -8.567,2.7c-2,0 -3.689,-0.2 -5.067,-0.6c-1.378,-0.4 -2.7,-1.167 -3.967,-2.3c-1.267,-1.133 -2.211,-2.867 -2.833,-5.2c-0.622,-2.333 -0.933,-5.3 -0.933,-8.9c0,-2.267 0.067,-4.167 0.2,-5.7c0.133,-1.533 0.456,-3.144 0.967,-4.833c0.511,-1.689 1.211,-3.033 2.1,-4.033c0.889,-1 2.133,-1.822 3.733,-2.467c1.6,-0.644 3.533,-0.967 5.8,-0.967c4.622,0 7.778,1.278 9.467,3.833c1.689,2.556 2.533,6.744 2.533,12.567l0,2.867Z" style="fill:#595554;fill-rule:nonzero;"/><path d="M642.675,1515.739l-5.467,0l0,-23.333c0,-4.356 -1.978,-6.533 -5.933,-6.533c-4.578,0 -6.867,3.311 -6.867,9.933l0,19.933l-5.467,0l0,-26.667c0,-2.089 -0.111,-4.422 -0.333,-7l5.8,0l0,4.333l0.267,0c1.067,-1.867 2.278,-3.167 3.633,-3.9c1.356,-0.733 3.144,-1.1 5.367,-1.1c3.378,0 5.722,0.922 7.033,2.767c1.311,1.844 1.967,4.589 1.967,8.233l0,23.333Z" style="fill:#595554;fill-rule:nonzero;"/><path d="M657.942,1496.539l13.133,0c0,-4.533 -0.547,-7.5 -1.642,-8.9c-1.094,-1.4 -2.803,-2.1 -5.126,-2.1c-2.01,0 -3.574,0.767 -4.691,2.3c-1.117,1.533 -1.675,4.433 -1.675,8.7Zm18.933,4.133l-18.933,0c0,4.4 0.547,7.378 1.642,8.933c1.095,1.556 2.827,2.333 5.195,2.333c1.787,0 3.194,-0.611 4.222,-1.833c1.028,-1.222 1.542,-2.744 1.542,-4.567l6,0c0,3.644 -1.033,6.367 -3.1,8.167c-2.067,1.8 -4.922,2.7 -8.567,2.7c-2,0 -3.689,-0.2 -5.067,-0.6c-1.378,-0.4 -2.7,-1.167 -3.967,-2.3c-1.267,-1.133 -2.211,-2.867 -2.833,-5.2c-0.622,-2.333 -0.933,-5.3 -0.933,-8.9c0,-2.267 0.067,-4.167 0.2,-5.7c0.133,-1.533 0.456,-3.144 0.967,-4.833c0.511,-1.689 1.211,-3.033 2.1,-4.033c0.889,-1 2.133,-1.822 3.733,-2.467c1.6,-0.644 3.533,-0.967 5.8,-0.967c4.622,0 7.778,1.278 9.467,3.833c1.689,2.556 2.533,6.744 2.533,12.567l0,2.867Z" style="fill:#595554;fill-rule:nonzero;"/><path d="M708.275,1515.739l-5.467,0l0,-23.333c0,-4.356 -1.778,-6.533 -5.333,-6.533c-0.844,0 -1.744,0.222 -2.7,0.667c-0.956,0.444 -1.633,0.978 -2.033,1.6c-0.844,1.422 -1.267,3.067 -1.267,4.933l0,22.667l-5.467,0l0,-26.667c0,-2.089 -0.111,-4.422 -0.333,-7l5.8,0l0,4.2l0.133,0c1.422,-3.244 4.222,-4.867 8.4,-4.867c1.689,0 3.278,0.367 4.767,1.1c1.489,0.733 2.522,1.811 3.1,3.233c1.511,-2.889 4.178,-4.333 8,-4.333c6.133,0 9.2,2.911 9.2,8.733l0,25.6l-5.467,0l0,-23.333c0,-4.356 -1.778,-6.533 -5.333,-6.533c-1.111,0 -1.9,0.067 -2.367,0.2c-0.467,0.133 -1.056,0.489 -1.767,1.067c-1.244,1.022 -1.867,3 -1.867,5.933l0,22.667Z" style="fill:#595554;fill-rule:nonzero;"/><path d="M736.809,1482.072l8.067,27.4l0.133,0l8.067,-27.4l5.933,0l-15.267,46.4l-5.667,0l3.8,-12.733l-11.4,-33.667l6.333,0Z" style="fill:#595554;fill-rule:nonzero;"/><path d="M786.424,1508.706c0.978,2.156 2.844,3.233 5.6,3.233c2.756,0 4.622,-1.078 5.6,-3.233c0.978,-2.156 1.467,-6.033 1.467,-11.633c0,-4.311 -0.6,-7.256 -1.8,-8.833c-1.2,-1.578 -2.956,-2.367 -5.267,-2.367c-2.311,0 -4.067,0.789 -5.267,2.367c-1.2,1.578 -1.8,4.522 -1.8,8.833c0,5.6 0.489,9.478 1.467,11.633Zm10.667,7.1c-1.378,0.4 -3.067,0.6 -5.067,0.6c-2,0 -3.689,-0.2 -5.067,-0.6c-1.378,-0.4 -2.7,-1.167 -3.967,-2.3c-1.267,-1.133 -2.211,-2.867 -2.833,-5.2c-0.622,-2.333 -0.933,-5.3 -0.933,-8.9c0,-2.267 0.067,-4.167 0.2,-5.7c0.133,-1.533 0.456,-3.144 0.967,-4.833c0.511,-1.689 1.211,-3.033 2.1,-4.033c0.889,-1 2.133,-1.822 3.733,-2.467c1.6,-0.644 3.533,-0.967 5.8,-0.967c2.267,0 4.2,0.322 5.8,0.967c1.6,0.644 2.844,1.467 3.733,2.467c0.889,1 1.589,2.344 2.1,4.033c0.511,1.689 0.833,3.3 0.967,4.833c0.133,1.533 0.2,3.433 0.2,5.7c0,3.6 -0.311,6.567 -0.933,8.9c-0.622,2.333 -1.567,4.067 -2.833,5.2c-1.267,1.133 -2.589,1.9 -3.967,2.3Z" style="fill:#595554;fill-rule:nonzero;"/><path d="M809.624,1482.072l5.2,0l0,-6.533c0,-5.422 3.222,-8.133 9.667,-8.133c0.933,0 1.8,0.067 2.6,0.2l0,3.933c-2.622,-0.178 -4.411,0.167 -5.367,1.033c-0.956,0.867 -1.433,2.122 -1.433,3.767l0,5.733l6.8,0l0,4.133l-6.8,0l0,29.533l-5.467,0l0,-29.533l-5.2,0l0,-4.133Z" style="fill:#595554;fill-rule:nonzero;"/><path d="M871.439,1492.872l-5.667,0c0,-2.489 -0.464,-4.278 -1.393,-5.367c-0.928,-1.089 -2.032,-1.633 -3.314,-1.633c-2.299,0 -4.044,0.789 -5.238,2.367c-1.193,1.578 -1.79,4.522 -1.79,8.833c0,5.6 0.486,9.478 1.458,11.633c0.972,2.156 2.829,3.233 5.57,3.233c1.06,0 2.154,-0.578 3.281,-1.733c1.127,-1.156 1.691,-3.044 1.691,-5.667l5.667,0c0,2.222 -0.355,4.156 -1.064,5.8c-0.709,1.644 -1.651,2.878 -2.825,3.7c-1.174,0.822 -2.327,1.422 -3.457,1.8c-1.13,0.378 -2.227,0.567 -3.291,0.567c-1.994,0 -3.678,-0.2 -5.052,-0.6c-1.374,-0.4 -2.692,-1.167 -3.955,-2.3c-1.263,-1.133 -2.205,-2.867 -2.826,-5.2c-0.62,-2.333 -0.93,-5.3 -0.93,-8.9c0,-2.267 0.067,-4.167 0.2,-5.7c0.133,-1.533 0.456,-3.144 0.967,-4.833c0.511,-1.689 1.211,-3.033 2.1,-4.033c0.889,-1 2.133,-1.822 3.733,-2.467c1.6,-0.644 3.533,-0.967 5.8,-0.967c3.422,0 6.044,0.978 7.867,2.933c1.822,1.956 2.644,4.8 2.467,8.533Z" style="fill:#595554;fill-rule:nonzero;"/><path d="M887.506,1482.072l0,5.067l0.133,0c1.067,-2.4 2.333,-3.956 3.8,-4.667c1.467,-0.711 3.667,-1.067 6.6,-1.067l0,5.667c-0.133,0 -0.378,-0.022 -0.733,-0.067c-0.356,-0.044 -0.6,-0.089 -0.733,-0.133c-0.622,-0.089 -1.111,-0.133 -1.467,-0.133c-5.067,0 -7.6,3.044 -7.6,9.133l0,19.867l-5.467,0l0,-33.667l5.467,0Z" style="fill:#595554;fill-rule:nonzero;"/><path d="M909.706,1496.539l13.133,0c0,-4.533 -0.547,-7.5 -1.642,-8.9c-1.094,-1.4 -2.803,-2.1 -5.126,-2.1c-2.01,0 -3.574,0.767 -4.691,2.3c-1.117,1.533 -1.675,4.433 -1.675,8.7Zm18.933,4.133l-18.933,0c0,4.4 0.547,7.378 1.642,8.933c1.095,1.556 2.827,2.333 5.195,2.333c1.787,0 3.194,-0.611 4.222,-1.833c1.028,-1.222 1.542,-2.744 1.542,-4.567l6,0c0,3.644 -1.033,6.367 -3.1,8.167c-2.067,1.8 -4.922,2.7 -8.567,2.7c-2,0 -3.689,-0.2 -5.067,-0.6c-1.378,-0.4 -2.7,-1.167 -3.967,-2.3c-1.267,-1.133 -2.211,-2.867 -2.833,-5.2c-0.622,-2.333 -0.933,-5.3 -0.933,-8.9c0,-2.267 0.067,-4.167 0.2,-5.7c0.133,-1.533 0.456,-3.144 0.967,-4.833c0.511,-1.689 1.211,-3.033 2.1,-4.033c0.889,-1 2.133,-1.822 3.733,-2.467c1.6,-0.644 3.533,-0.967 5.8,-0.967c4.622,0 7.778,1.278 9.467,3.833c1.689,2.556 2.533,6.744 2.533,12.567l0,2.867Z" style="fill:#595554;fill-rule:nonzero;"/><path d="M955.239,1499.072c-3.956,0 -6.578,0.2 -7.867,0.6c-2.889,0.889 -4.333,2.911 -4.333,6.067c0,1.778 0.444,3.256 1.333,4.433c0.889,1.178 2.2,1.767 3.933,1.767c5.067,0 7.378,-4.289 6.933,-12.867Zm0.133,16.667l0,-4.867l-0.133,0c-1.6,3.689 -4.422,5.533 -8.467,5.533c-3.378,0 -5.756,-0.969 -7.133,-2.908c-1.378,-1.94 -2.067,-4.67 -2.067,-8.193c0,-1.962 0.389,-3.634 1.167,-5.016c0.778,-1.382 1.711,-2.43 2.8,-3.143c1.089,-0.714 2.5,-1.26 4.233,-1.639c1.733,-0.379 3.278,-0.569 4.633,-0.569l4.833,0l0,-2.685c0,-0.895 -0.099,-1.745 -0.298,-2.551c-0.199,-0.806 -0.486,-1.523 -0.861,-2.149c-0.376,-0.627 -0.95,-1.119 -1.723,-1.477c-0.773,-0.358 -1.712,-0.538 -2.817,-0.538c-1.811,0 -3.181,0.556 -4.109,1.667c-0.928,1.111 -1.303,2.556 -1.125,4.333l-5.867,0c0,-3.644 0.95,-6.244 2.85,-7.8c1.901,-1.556 4.707,-2.333 8.418,-2.333c4.069,0 6.919,0.9 8.551,2.7c1.632,1.8 2.448,4.278 2.448,7.433l0,16.2c0,2.444 0.222,5.111 0.667,8l-6,0Z" style="fill:#595554;fill-rule:nonzero;"/><path d="M966.773,1482.072l5.533,0l0,-6.467l5.467,-2.467l0,8.933l7.333,0l0,4.133l-7.333,0l0,20.6c0,0.756 0.033,1.333 0.1,1.733c0.067,0.4 0.233,0.889 0.5,1.467c0.267,0.578 0.767,1 1.5,1.267c0.733,0.267 1.7,0.4 2.9,0.4c0.044,0 0.867,-0.089 2.467,-0.267l0,4.2c-0.4,0.044 -1.233,0.144 -2.5,0.3c-1.267,0.156 -2.233,0.233 -2.9,0.233c-5.022,0 -7.533,-2 -7.533,-6l0,-23.933l-5.533,0l0,-4.133Z" style="fill:#595554;fill-rule:nonzero;"/><path d="M995.906,1482.072l0,33.667l-5.467,0l0,-33.667l5.467,0Zm-5.8,-8.6l0,-5.867l6.133,0l0,5.867l-6.133,0Z" style="fill:#595554;fill-rule:nonzero;"/><path d="M1011.839,1515.739l-10,-33.667l6.133,0l7.533,28.533l0.133,0l8.133,-28.533l5.733,0l-10.533,33.667l-7.133,0Z" style="fill:#595554;fill-rule:nonzero;"/><path d="M1040.973,1482.072l0,33.667l-5.467,0l0,-33.667l5.467,0Zm-5.8,-8.6l0,-5.867l6.133,0l0,5.867l-6.133,0Z" style="fill:#595554;fill-rule:nonzero;"/><path d="M1045.839,1482.072l5.533,0l0,-6.467l5.467,-2.467l0,8.933l7.333,0l0,4.133l-7.333,0l0,20.6c0,0.756 0.033,1.333 0.1,1.733c0.067,0.4 0.233,0.889 0.5,1.467c0.267,0.578 0.767,1 1.5,1.267c0.733,0.267 1.7,0.4 2.9,0.4c0.044,0 0.867,-0.089 2.467,-0.267l0,4.2c-0.4,0.044 -1.233,0.144 -2.5,0.3c-1.267,0.156 -2.233,0.233 -2.9,0.233c-5.022,0 -7.533,-2 -7.533,-6l0,-23.933l-5.533,0l0,-4.133Z" style="fill:#595554;fill-rule:nonzero;"/><path d="M1071.706,1482.072l8.067,27.4l0.133,0l8.067,-27.4l5.933,0l-15.267,46.4l-5.667,0l3.8,-12.733l-11.4,-33.667l6.333,0Z" style="fill:#595554;fill-rule:nonzero;"/><path d="M170.978,249.75l63.788,0l0,-193.725l48.937,0l0,-56.025l-162,0l0,56.025l49.275,0l0,193.725Z" style="fill-rule:nonzero;"/><path d="M292.478,249.75l141.412,0l0,-56.025l-77.625,0l0,-42.863l75.263,0l0,-56.025l-75.263,0l0,-38.812l77.625,0l0,-56.025l-141.412,0l0,249.75Z" style="fill-rule:nonzero;"/><path d="M508.816,0l-55.012,0l0,249.75l61.087,0l-1.35,-150.525l95.513,150.525l55.35,0l0,-249.75l-61.088,0l1.35,152.212l-95.85,-152.212Z" style="fill-rule:nonzero;"/><path d="M833.491,51.637l0,-51.637l-157.612,0l0,56.025l86.062,0l-86.062,151.875l0,41.85l157.612,0l0,-56.025l-79.65,0l79.65,-142.087Z" style="fill-rule:nonzero;"/><rect x="844.628" y="0" width="63.788" height="249.75" style="fill-rule:nonzero;"/><path d="M991.778,0l-55.013,0l0,249.75l61.088,0l-1.35,-150.525l95.512,150.525l55.35,0l0,-249.75l-61.087,0l1.35,152.212l-95.85,-152.212Z" style="fill-rule:nonzero;"/><path d="M269.88,333.294c-14.445,-50.382 -67.998,-92.309 -130.36,-92.309c-76.806,0 -139.52,56.372 -139.52,134.235c-0,75.045 59.543,136.701 138.463,136.701c42.983,0 101.469,-21.492 126.836,-78.92c11.274,-25.367 13.388,-56.019 11.979,-74.693l-154.67,0l0,53.201l77.863,0c-3.523,12.684 -10.922,23.253 -21.492,30.3c-10.57,7.399 -24.31,11.627 -40.87,11.627c-32.766,0 -71.522,-23.606 -71.522,-78.216c0,-51.439 38.403,-75.75 71.169,-75.75c18.321,0 32.766,6.694 43.688,16.207c5.637,5.285 10.217,11.274 13.741,17.616l74.693,0Z" style="fill-rule:nonzero;"/><path d="M344.925,506.637l66.589,0l0,-94.775l77.159,-165.944l-71.522,0l-39.108,104.64l-38.756,-104.64l-72.226,0l77.863,165.944l0,94.775Z" style="fill-rule:nonzero;"/><path d="M519.325,468.938l91.252,0l12.331,37.699l72.931,0l-100.06,-260.719l-57.429,0l-103.231,260.719l72.226,0l11.979,-37.699Zm73.988,-52.849l-57.429,0l28.186,-90.899l29.243,90.899Z" style="fill-rule:nonzero;"/><path d="M708.17,506.637l66.589,0l0,-202.234l51.087,0l0,-58.486l-169.115,0l0,58.486l51.439,0l0,202.234Z" style="fill-rule:nonzero;"/><path d="M813.162,420.317c-1.762,51.087 25.72,91.252 94.07,91.252c69.055,0 90.899,-41.926 90.899,-83.501c0,-30.3 -12.331,-52.849 -60.952,-74.693c-46.859,-21.139 -53.905,-24.31 -53.905,-36.289c0,-12.331 11.274,-20.435 22.901,-20.435c20.435,0 22.549,16.559 23.958,25.367l65.884,0c-1.057,-62.714 -51.792,-81.034 -87.729,-81.034c-43.688,0 -91.252,27.834 -91.252,80.33c0,48.973 45.45,67.294 63.771,74.693c40.165,16.912 51.087,21.139 51.087,34.88c0,11.979 -9.513,25.015 -25.367,25.015c-8.456,0 -27.129,-5.285 -27.129,-35.585l-66.237,0Z" style="fill-rule:nonzero;"/><path d="M993.904,379.448c0,66.941 54.962,132.121 137.054,132.121c81.034,0 138.111,-62.714 138.111,-135.292c0,-72.579 -57.429,-135.292 -137.758,-135.292c-71.874,0 -137.406,52.849 -137.406,138.111l0,0.352Zm66.589,-3.876c0,-36.642 25.015,-76.102 71.169,-76.102c47.916,0 70.817,43.336 70.817,77.159c0,33.471 -22.901,76.454 -70.112,76.454c-44.745,0 -71.874,-37.346 -71.874,-77.159l0,-0.352Z" style="fill-rule:nonzero;"/><path d="M439.234,560.351l-9.4,0c0,-5.133 -0.77,-8.633 -2.309,-10.5c-0.871,-1 -2.127,-1.767 -3.767,-2.3c-1.641,-0.533 -3.097,-0.8 -4.369,-0.8c-2.276,0 -4.302,0.417 -6.077,1.25c-1.774,0.833 -2.996,1.633 -3.666,2.4c-0.669,0.767 -1.07,1.417 -1.205,1.95c0,0.067 -0.084,0.25 -0.252,0.55c-0.167,0.3 -0.317,0.617 -0.452,0.95c-0.134,0.333 -0.285,0.883 -0.453,1.65c-0.167,0.767 -0.317,1.633 -0.452,2.6c-0.133,0.967 -0.2,2.267 -0.2,3.9l0,24.65c0,4.267 0.315,7.783 0.945,10.55c0.631,2.767 1.594,4.783 2.889,6.05c1.295,1.267 2.622,2.117 3.983,2.55c1.361,0.433 3.038,0.65 5.03,0.65c0.996,0 1.992,-0.15 2.987,-0.45c0.996,-0.3 2.191,-0.883 3.584,-1.75c1.395,-0.867 2.54,-2.417 3.436,-4.65c0.897,-2.233 1.345,-4.983 1.345,-8.25l9.5,0c0,3.133 -0.299,5.95 -0.898,8.45c-0.598,2.5 -1.329,4.517 -2.194,6.05c-0.865,1.533 -1.995,2.867 -3.392,4c-1.397,1.133 -2.661,1.967 -3.792,2.5c-1.13,0.533 -2.477,0.95 -4.041,1.25c-1.562,0.3 -2.71,0.45 -3.442,0.45l-6.834,0c-1.097,0 -2.51,-0.201 -4.239,-0.602c-1.729,-0.4 -3.193,-0.951 -4.391,-1.652c-1.197,-0.701 -2.477,-1.752 -3.841,-3.153c-1.364,-1.402 -2.445,-3.087 -3.244,-5.056c-0.798,-1.97 -1.48,-4.49 -2.045,-7.561c-0.565,-3.071 -0.847,-6.542 -0.847,-10.414l0,-20.427c0,-9.68 1.967,-16.473 5.9,-20.378c3.933,-3.905 9.7,-5.858 17.3,-5.858c7,0 12.017,1.783 15.05,5.35c3.033,3.567 4.317,8.917 3.85,16.05Z" style="fill:#595554;fill-rule:nonzero;"/><path d="M464.034,548.451l0,23l13.8,0c3.133,0 5.55,-1.15 7.25,-3.45c1.7,-2.3 2.55,-5.15 2.55,-8.55c0,-3 -0.8,-5.583 -2.4,-7.75c-1.6,-2.167 -4.033,-3.25 -7.3,-3.25l-13.9,0Zm10.8,31l-10.8,0l0,33.2l-9.2,0l0,-72.2l24.9,0c5.933,0 10.3,1.733 13.1,5.2c2.8,3.467 4.2,7.733 4.2,12.8c0,4.333 -1.15,7.983 -3.45,10.95c-2.3,2.967 -5.55,4.817 -9.75,5.55l0,0.2c4.333,0.667 7.317,2.183 8.95,4.55c1.633,2.367 2.583,7.05 2.85,14.05c0.067,2.2 0.35,5.4 0.85,9.6c0.5,4.2 1.05,7.3 1.65,9.3l-9.6,0c-0.8,-1.533 -1.35,-3.433 -1.65,-5.7c-0.3,-2.267 -0.533,-5.433 -0.7,-9.5c-0.167,-4.067 -0.317,-7 -0.45,-8.8c-0.467,-6.133 -4.1,-9.2 -10.9,-9.2Z" style="fill:#595554;fill-rule:nonzero;"/><path d="M549.934,612.651l-37.8,0l0,-72.2l37.2,0l0,8l-28,0l0,23.2l26,0l0,8l-26,0l0,25l28.6,0l0,8Z" style="fill:#595554;fill-rule:nonzero;"/><path d="M557.034,612.651l22.9,-72.2l11.7,0l23.5,72.2l-10.3,0l-5.2,-17.2l-27.9,0l-5.4,17.2l-9.3,0Zm40.1,-25.2l-11.6,-38.5l-0.2,0l-11.3,38.5l23.1,0Z" style="fill:#595554;fill-rule:nonzero;"/><path d="M612.134,540.451l47.2,0l0,8l-19,0l0,64.2l-9.2,0l0,-64.2l-19,0l0,-8Z" style="fill:#595554;fill-rule:nonzero;"/><rect x="671.534" y="540.451" width="9.2" height="72.2" style="fill:#595554;fill-rule:nonzero;"/><path d="M739.234,607.601c-3.667,4.367 -9.4,6.55 -17.2,6.55c-7.8,0 -13.533,-2.183 -17.2,-6.55c-3.667,-4.367 -5.5,-11.483 -5.5,-21.35l0,-23.7c0,-7.4 1.917,-13.183 5.75,-17.35c3.833,-4.167 9.483,-6.25 16.95,-6.25c7.467,0 13.117,2.083 16.95,6.25c3.833,4.167 5.75,9.95 5.75,17.35l0,23.7c0,9.867 -1.833,16.983 -5.5,21.35Zm-27.3,-5.4c2.133,2.833 5.5,4.25 10.1,4.25c4.6,0 7.967,-1.417 10.1,-4.25c2.133,-2.833 3.2,-8.017 3.2,-15.55l0,-24.4c0,-2.867 -0.383,-5.333 -1.15,-7.4c-0.767,-2.067 -1.65,-3.617 -2.65,-4.65c-1,-1.033 -2.2,-1.833 -3.6,-2.4c-1.4,-0.567 -2.517,-0.9 -3.35,-1c-0.833,-0.1 -1.683,-0.15 -2.55,-0.15c-0.867,0 -1.717,0.05 -2.55,0.15c-0.833,0.1 -1.95,0.433 -3.35,1c-1.4,0.567 -2.6,1.367 -3.6,2.4c-1,1.033 -1.883,2.583 -2.65,4.65c-0.767,2.067 -1.15,4.533 -1.15,7.4l0,24.4c0,7.533 1.067,12.717 3.2,15.55Z" style="fill:#595554;fill-rule:nonzero;"/><path d="M803.934,540.451l8.3,0l0,72.2l-12.6,0l-28.6,-62.6l0,62.6l-8.3,0l0,-72.2l13,0l28.2,61.8l0,-61.8Z" style="fill:#595554;fill-rule:nonzero;"/><path d="M828.434,591.151l9.1,0l0,2.1c0,4.533 1.167,7.817 3.5,9.85c2.333,2.033 5.2,3.05 8.6,3.05c8.6,0 12.9,-3.9 12.9,-11.7c0,-2.933 -1.117,-5.5 -3.35,-7.7c-2.233,-2.2 -4.933,-4.1 -8.1,-5.7c-3.167,-1.6 -6.333,-3.267 -9.5,-5c-3.167,-1.733 -5.867,-4.083 -8.1,-7.05c-2.233,-2.967 -3.35,-6.45 -3.35,-10.45c0,-6.2 1.967,-11.017 5.9,-14.45c3.933,-3.433 9.033,-5.15 15.3,-5.15c13.933,0 20.6,7.033 20,21.1l-9.6,0c0,-4.267 -0.83,-7.517 -2.489,-9.75c-1.659,-2.233 -4.546,-3.35 -8.661,-3.35c-3.119,0 -5.74,0.868 -7.864,2.605c-2.124,1.735 -3.186,4.406 -3.186,8.011c0,2.871 1.117,5.408 3.35,7.611c2.233,2.203 4.933,4.09 8.1,5.659c3.167,1.569 6.333,3.238 9.5,5.008c3.167,1.769 5.867,4.206 8.1,7.311c2.233,3.104 3.35,6.759 3.35,10.966c0,7.077 -2.093,12.202 -6.28,15.373c-4.185,3.171 -9.593,4.756 -16.223,4.756c-4.085,0 -7.568,-0.617 -10.448,-1.85c-2.88,-1.233 -5.007,-2.633 -6.38,-4.2c-1.373,-1.567 -2.411,-3.567 -3.114,-6c-0.703,-2.433 -1.055,-4.383 -1.055,-5.85l0,-5.2Z" style="fill:#595554;fill-rule:nonzero;"/><path d="M269.095,2148.368c-3.483,0 -6.462,-1.237 -8.936,-3.711c-2.474,-2.474 -3.711,-5.452 -3.711,-8.936c0,-3.494 1.237,-6.475 3.711,-8.944c2.474,-2.469 5.452,-3.703 8.936,-3.703c3.494,0 6.475,1.234 8.944,3.703c2.469,2.469 3.703,5.45 3.703,8.944c0,3.483 -1.234,6.462 -3.703,8.936c-2.469,2.474 -5.45,3.711 -8.944,3.711Zm0,-1.807c3.451,0 6.212,-1.297 8.285,-3.89c1.704,-2.138 2.555,-4.454 2.555,-6.95c0,-2.517 -0.852,-4.834 -2.555,-6.95c-2.083,-2.593 -4.845,-3.89 -8.285,-3.89c-3.44,0 -6.201,1.297 -8.285,3.89c-1.704,2.116 -2.555,4.433 -2.555,6.95c0,2.496 0.852,4.812 2.555,6.95c2.072,2.593 4.834,3.89 8.285,3.89Zm4.622,-4.411c-1.53,0.532 -2.913,0.798 -4.15,0.798c-2.051,0 -3.73,-0.667 -5.037,-2.002c-1.308,-1.335 -1.961,-3.049 -1.961,-5.143c0,-2.192 0.64,-3.942 1.921,-5.249c1.28,-1.308 2.989,-1.961 5.127,-1.961c0.998,0 2.224,0.141 3.678,0.423l0.423,0.081l0,1.986c-1.476,-0.597 -2.799,-0.895 -3.971,-0.895c-1.432,0 -2.585,0.51 -3.459,1.53c-0.873,1.02 -1.31,2.36 -1.31,4.02c0,1.66 0.453,2.976 1.359,3.947c0.906,0.971 2.14,1.457 3.703,1.457c1.226,0 2.452,-0.336 3.678,-1.009l0,2.018Z" style="fill:#595554;fill-rule:nonzero;"/><path d="M302.735,2147.766l0,-21.533l-8.545,0l0,-2.555l20.508,0l0,2.555l-8.545,0l0,21.533l-3.418,0Z" style="fill:#595554;fill-rule:nonzero;"/><path d="M331.135,2147.197c-2.148,0.651 -3.988,0.977 -5.518,0.977c-2.615,0 -4.742,-0.865 -6.38,-2.594c-1.638,-1.729 -2.458,-3.971 -2.458,-6.724c0,-2.678 0.724,-4.873 2.173,-6.586c1.449,-1.713 3.301,-2.569 5.558,-2.569c2.138,0 3.79,0.762 4.956,2.287c1.166,1.525 1.75,3.687 1.75,6.486l-0.016,0.977l-11.149,0c0.467,4.188 2.523,6.283 6.169,6.283c1.335,0 2.973,-0.363 4.915,-1.09l0,2.555Zm-10.938,-10.156l7.796,0c0,-3.288 -1.226,-4.932 -3.678,-4.932c-2.463,0 -3.836,1.644 -4.118,4.932Z" style="fill:#595554;fill-rule:nonzero;"/><path d="M336.748,2147.766l0,-17.676l3.206,0l0,3.32c1.693,-2.474 3.765,-3.711 6.217,-3.711c1.541,0 2.764,0.486 3.67,1.457c0.906,0.971 1.359,2.276 1.359,3.914l0,12.695l-3.206,0l0,-11.654c0,-1.313 -0.193,-2.249 -0.578,-2.808c-0.385,-0.559 -1.023,-0.838 -1.912,-0.838c-1.964,0 -3.814,1.286 -5.55,3.857l0,11.442l-3.206,0Z" style="fill:#595554;fill-rule:nonzero;"/><path d="M356.229,2147.766l0,-2.409l10.938,-12.858l-10.433,0l0,-2.409l14.388,0l0,2.409l-10.938,12.858l11.149,0l0,2.409l-15.104,0Z" style="fill:#595554;fill-rule:nonzero;"/><path d="M376.539,2147.766l0,-17.676l3.206,0l0,17.676l-3.206,0Zm0,-20.882l0,-3.206l3.206,0l0,3.206l-3.206,0Z" style="fill:#595554;fill-rule:nonzero;"/><path d="M386.173,2147.766l0,-17.676l3.206,0l0,3.32c1.693,-2.474 3.765,-3.711 6.217,-3.711c1.541,0 2.764,0.486 3.67,1.457c0.906,0.971 1.359,2.276 1.359,3.914l0,12.695l-3.206,0l0,-11.654c0,-1.313 -0.193,-2.249 -0.578,-2.808c-0.385,-0.559 -1.023,-0.838 -1.912,-0.838c-1.964,0 -3.814,1.286 -5.55,3.857l0,11.442l-3.206,0Z" style="fill:#595554;fill-rule:nonzero;"/><path d="M435.405,2147.115c-2.919,0.836 -5.463,1.253 -7.633,1.253c-3.83,0 -6.768,-1.088 -8.813,-3.263c-2.045,-2.176 -3.068,-5.303 -3.068,-9.383c0,-4.015 1.039,-7.126 3.117,-9.334c2.078,-2.208 4.999,-3.312 8.765,-3.312c2.42,0 4.953,0.363 7.601,1.09l0,3.158c-3.32,-1.128 -5.865,-1.693 -7.633,-1.693c-2.604,0 -4.625,0.882 -6.063,2.645c-1.438,1.763 -2.157,4.251 -2.157,7.463c0,3.179 0.77,5.653 2.311,7.422c1.541,1.769 3.7,2.653 6.478,2.653c1.139,0 2.371,-0.201 3.695,-0.602l0,-7.845l3.402,0l0,9.749Z" style="fill:#595554;fill-rule:nonzero;"/><path d="M442.516,2154.195l2.865,-6.427l-6.836,-17.678l3.467,0l5.062,13.317l5.404,-13.317l3.027,0l-9.652,24.105l-3.337,0Z" style="fill:#595554;fill-rule:nonzero;"/><path d="M468.019,2145.52c-1.921,1.769 -3.771,2.653 -5.55,2.653c-1.465,0 -2.68,-0.458 -3.646,-1.375c-0.966,-0.917 -1.449,-2.075 -1.449,-3.475c0,-1.931 0.811,-3.415 2.433,-4.451c1.622,-1.036 3.952,-1.554 6.991,-1.554l0.749,0l0,-2.132c0,-2.051 -1.069,-3.076 -3.206,-3.076c-1.66,0 -3.472,0.521 -5.436,1.562l0,-2.653c2.159,-0.879 4.194,-1.318 6.104,-1.318c1.964,0 3.413,0.448 4.346,1.343c0.933,0.895 1.4,2.276 1.4,4.142l0,8.008c0,1.834 0.564,2.751 1.693,2.751c0.141,0 0.347,-0.022 0.618,-0.065l0.228,1.774c-0.727,0.347 -1.53,0.521 -2.409,0.521c-1.497,0 -2.452,-0.884 -2.865,-2.653Zm-0.472,-1.742l0,-4.574l-1.025,-0.033c-1.78,0 -3.215,0.331 -4.305,0.993c-1.09,0.662 -1.636,1.541 -1.636,2.637c0,0.77 0.271,1.421 0.814,1.953c0.543,0.532 1.204,0.798 1.986,0.798c1.335,0 2.724,-0.591 4.167,-1.774Z" style="fill:#595554;fill-rule:nonzero;"/><path d="M485.188,2147.766c-0.987,0.271 -1.845,0.407 -2.572,0.407c-1.628,0 -2.897,-0.467 -3.809,-1.4c-0.911,-0.933 -1.367,-2.23 -1.367,-3.89l0,-10.384l-2.214,0l0,-2.409l2.214,0l0,-3.206l3.206,-0.309l0,3.516l4.622,0l0,2.409l-4.622,0l0,9.798c0,2.311 0.998,3.467 2.995,3.467c0.423,0 0.939,-0.071 1.546,-0.212l0,2.214Z" style="fill:#595554;fill-rule:nonzero;"/><path d="M489.125,2147.148l0,-2.946c2.094,1.042 3.917,1.562 5.469,1.562c0.922,0 1.687,-0.25 2.295,-0.749c0.608,-0.499 0.911,-1.123 0.911,-1.872c0,-1.096 -0.852,-2.002 -2.555,-2.718l-1.872,-0.798c-2.767,-1.15 -4.15,-2.805 -4.15,-4.964c0,-1.541 0.545,-2.753 1.636,-3.638c1.09,-0.884 2.585,-1.326 4.484,-1.326c0.987,0 2.208,0.136 3.662,0.407l0.667,0.13l0,2.669c-1.79,-0.532 -3.217,-0.798 -4.281,-0.798c-0.933,0 -1.679,0.203 -2.238,0.61c-0.559,0.407 -0.838,0.952 -0.838,1.636c0,0.966 0.781,1.78 2.344,2.441l1.546,0.651c1.747,0.738 2.984,1.516 3.711,2.336c0.727,0.819 1.09,1.842 1.09,3.068c0,1.552 -0.613,2.827 -1.839,3.825c-1.226,0.998 -2.794,1.497 -4.704,1.497c-1.465,0 -3.244,-0.342 -5.339,-1.025Z" style="fill:#595554;fill-rule:nonzero;"/><path d="M513.798,2148.173c-2.593,0 -4.647,-0.83 -6.16,-2.49c-1.514,-1.66 -2.271,-3.912 -2.271,-6.755c0,-2.843 0.757,-5.092 2.271,-6.746c1.514,-1.655 3.567,-2.482 6.16,-2.482c2.593,0 4.647,0.827 6.16,2.482c1.514,1.655 2.271,3.904 2.271,6.746c0,2.843 -0.757,5.094 -2.271,6.755c-1.514,1.66 -3.567,2.49 -6.16,2.49Zm0,-2.409c1.595,0 2.832,-0.597 3.711,-1.79c0.879,-1.194 1.318,-2.875 1.318,-5.046c0,-2.17 -0.439,-3.849 -1.318,-5.037c-0.879,-1.188 -2.116,-1.782 -3.711,-1.782c-1.595,0 -2.829,0.594 -3.703,1.782c-0.873,1.188 -1.31,2.867 -1.31,5.037c0,2.17 0.437,3.852 1.31,5.046c0.873,1.194 2.108,1.79 3.703,1.79Z" style="fill:#595554;fill-rule:nonzero;"/><path d="M555.787,2146.529c-2.376,1.226 -4.97,1.839 -7.78,1.839c-3.743,0 -6.635,-1.096 -8.675,-3.288c-2.04,-2.192 -3.06,-5.306 -3.06,-9.342c0,-4.026 1.039,-7.142 3.117,-9.351c2.078,-2.208 5.01,-3.312 8.797,-3.312c2.148,0 4.671,0.353 7.568,1.058l0,3.206c-3.299,-1.139 -5.843,-1.709 -7.633,-1.709c-2.615,0 -4.639,0.884 -6.071,2.653c-1.432,1.769 -2.148,4.264 -2.148,7.487c0,3.082 0.765,5.507 2.295,7.275c1.53,1.769 3.624,2.653 6.283,2.653c2.268,0 4.704,-0.7 7.308,-2.1l0,2.93Z" style="fill:#595554;fill-rule:nonzero;"/><path d="M560.847,2147.766l0,-17.676l3.206,0l0,3.32c1.27,-2.474 3.114,-3.711 5.534,-3.711c0.326,0 0.667,0.027 1.025,0.082l0,3.011c-0.553,-0.184 -1.042,-0.277 -1.465,-0.277c-2.029,0 -3.727,1.203 -5.094,3.609l0,11.641l-3.206,0Z" style="fill:#595554;fill-rule:nonzero;"/><path d="M587.441,2147.197c-2.148,0.651 -3.988,0.977 -5.518,0.977c-2.615,0 -4.742,-0.865 -6.38,-2.594c-1.638,-1.729 -2.458,-3.971 -2.458,-6.724c0,-2.678 0.724,-4.873 2.173,-6.586c1.449,-1.713 3.301,-2.569 5.558,-2.569c2.138,0 3.79,0.762 4.956,2.287c1.166,1.525 1.75,3.687 1.75,6.486l-0.016,0.977l-11.149,0c0.467,4.188 2.523,6.283 6.169,6.283c1.335,0 2.973,-0.363 4.915,-1.09l0,2.555Zm-10.938,-10.156l7.796,0c0,-3.288 -1.226,-4.932 -3.678,-4.932c-2.463,0 -3.836,1.644 -4.118,4.932Z" style="fill:#595554;fill-rule:nonzero;"/><path d="M602.169,2145.52c-1.921,1.769 -3.771,2.653 -5.55,2.653c-1.465,0 -2.68,-0.458 -3.646,-1.375c-0.966,-0.917 -1.449,-2.075 -1.449,-3.475c0,-1.931 0.811,-3.415 2.433,-4.451c1.622,-1.036 3.952,-1.554 6.991,-1.554l0.749,0l0,-2.132c0,-2.051 -1.069,-3.076 -3.206,-3.076c-1.66,0 -3.472,0.521 -5.436,1.562l0,-2.653c2.159,-0.879 4.194,-1.318 6.104,-1.318c1.964,0 3.413,0.448 4.346,1.343c0.933,0.895 1.4,2.276 1.4,4.142l0,8.008c0,1.834 0.564,2.751 1.693,2.751c0.141,0 0.347,-0.022 0.618,-0.065l0.228,1.774c-0.727,0.347 -1.53,0.521 -2.409,0.521c-1.497,0 -2.452,-0.884 -2.865,-2.653Zm-0.472,-1.742l0,-4.574l-1.025,-0.033c-1.78,0 -3.215,0.331 -4.305,0.993c-1.09,0.662 -1.636,1.541 -1.636,2.637c0,0.77 0.271,1.421 0.814,1.953c0.543,0.532 1.204,0.798 1.986,0.798c1.335,0 2.724,-0.591 4.167,-1.774Z" style="fill:#595554;fill-rule:nonzero;"/><path d="M619.338,2147.766c-0.987,0.271 -1.845,0.407 -2.572,0.407c-1.628,0 -2.897,-0.467 -3.809,-1.4c-0.911,-0.933 -1.367,-2.23 -1.367,-3.89l0,-10.384l-2.214,0l0,-2.409l2.214,0l0,-3.206l3.206,-0.309l0,3.516l4.622,0l0,2.409l-4.622,0l0,9.798c0,2.311 0.998,3.467 2.995,3.467c0.423,0 0.939,-0.071 1.546,-0.212l0,2.214Z" style="fill:#595554;fill-rule:nonzero;"/><path d="M623.926,2147.766l0,-17.676l3.206,0l0,17.676l-3.206,0Zm0,-20.882l0,-3.206l3.206,0l0,3.206l-3.206,0Z" style="fill:#595554;fill-rule:nonzero;"/><path d="M640.591,2148.173c-2.593,0 -4.647,-0.83 -6.16,-2.49c-1.514,-1.66 -2.271,-3.912 -2.271,-6.755c0,-2.843 0.757,-5.092 2.271,-6.746c1.514,-1.655 3.567,-2.482 6.16,-2.482c2.593,0 4.647,0.827 6.16,2.482c1.514,1.655 2.271,3.904 2.271,6.746c0,2.843 -0.757,5.094 -2.271,6.755c-1.514,1.66 -3.567,2.49 -6.16,2.49Zm0,-2.409c1.595,0 2.832,-0.597 3.711,-1.79c0.879,-1.194 1.318,-2.875 1.318,-5.046c0,-2.17 -0.439,-3.849 -1.318,-5.037c-0.879,-1.188 -2.116,-1.782 -3.711,-1.782c-1.595,0 -2.829,0.594 -3.703,1.782c-0.873,1.188 -1.31,2.867 -1.31,5.037c0,2.17 0.437,3.852 1.31,5.046c0.873,1.194 2.108,1.79 3.703,1.79Z" style="fill:#595554;fill-rule:nonzero;"/><path d="M654.033,2147.766l0,-17.676l3.206,0l0,3.32c1.693,-2.474 3.765,-3.711 6.217,-3.711c1.541,0 2.764,0.486 3.67,1.457c0.906,0.971 1.359,2.276 1.359,3.914l0,12.695l-3.206,0l0,-11.654c0,-1.313 -0.193,-2.249 -0.578,-2.808c-0.385,-0.559 -1.023,-0.838 -1.912,-0.838c-1.964,0 -3.814,1.286 -5.55,3.857l0,11.442l-3.206,0Z" style="fill:#595554;fill-rule:nonzero;"/><path d="M674.067,2147.148l0,-2.946c2.094,1.042 3.917,1.562 5.469,1.562c0.922,0 1.687,-0.25 2.295,-0.749c0.608,-0.499 0.911,-1.123 0.911,-1.872c0,-1.096 -0.852,-2.002 -2.555,-2.718l-1.872,-0.798c-2.767,-1.15 -4.15,-2.805 -4.15,-4.964c0,-1.541 0.545,-2.753 1.636,-3.638c1.09,-0.884 2.585,-1.326 4.484,-1.326c0.987,0 2.208,0.136 3.662,0.407l0.667,0.13l0,2.669c-1.79,-0.532 -3.217,-0.798 -4.281,-0.798c-0.933,0 -1.679,0.203 -2.238,0.61c-0.559,0.407 -0.838,0.952 -0.838,1.636c0,0.966 0.781,1.78 2.344,2.441l1.546,0.651c1.747,0.738 2.984,1.516 3.711,2.336c0.727,0.819 1.09,1.842 1.09,3.068c0,1.552 -0.613,2.827 -1.839,3.825c-1.226,0.998 -2.794,1.497 -4.704,1.497c-1.465,0 -3.244,-0.342 -5.339,-1.025Z" style="fill:#595554;fill-rule:nonzero;"/><rect x="691.757" y="2143.746" width="4.02" height="4.02" style="fill:#595554;fill-rule:nonzero;"/><path d="M709.87,2147.766l9.554,-24.089l3.385,0l9.408,24.089l-3.695,0l-2.62,-6.657l-10.205,0l-2.653,6.657l-3.174,0Zm6.82,-9.212l8.219,0l-4.102,-10.374l-4.118,10.374Z" style="fill:#595554;fill-rule:nonzero;"/><rect x="735.796" y="2122.066" width="3.206" height="25.7" style="fill:#595554;fill-rule:nonzero;"/><rect x="745.429" y="2122.066" width="3.206" height="25.7" style="fill:#595554;fill-rule:nonzero;"/><path d="M765.609,2147.766l0,-17.676l3.206,0l0,3.32c1.27,-2.474 3.114,-3.711 5.534,-3.711c0.326,0 0.667,0.027 1.025,0.082l0,3.011c-0.553,-0.184 -1.042,-0.277 -1.465,-0.277c-2.029,0 -3.727,1.203 -5.094,3.609l0,11.641l-3.206,0Z" style="fill:#595554;fill-rule:nonzero;"/><path d="M779.247,2147.766l0,-17.676l3.206,0l0,17.676l-3.206,0Zm0,-20.882l0,-3.206l3.206,0l0,3.206l-3.206,0Z" style="fill:#595554;fill-rule:nonzero;"/><path d="M788.945,2153.642l0.374,-2.767c1.855,0.868 3.689,1.302 5.501,1.302c3.602,0 5.404,-1.915 5.404,-5.745l0,-2.783c-0.553,1.172 -1.343,2.083 -2.368,2.734c-1.025,0.651 -2.167,0.977 -3.426,0.977c-2.138,0 -3.83,-0.768 -5.078,-2.303c-1.248,-1.535 -1.872,-3.616 -1.872,-6.242c0,-2.691 0.711,-4.883 2.132,-6.576c1.421,-1.693 3.261,-2.539 5.518,-2.539c1.975,0 3.673,0.803 5.094,2.409l0,-2.018l3.223,0l0,12.858c0,2.767 -0.144,4.815 -0.431,6.144c-0.288,1.329 -0.827,2.417 -1.619,3.263c-1.4,1.487 -3.586,2.23 -6.559,2.23c-2.04,0 -4.004,-0.315 -5.892,-0.944Zm11.279,-12.008l0,-7.331c-1.411,-1.463 -2.946,-2.194 -4.606,-2.194c-1.476,0 -2.631,0.591 -3.467,1.772c-0.836,1.181 -1.253,2.818 -1.253,4.909c0,3.836 1.362,5.754 4.085,5.754c1.855,0 3.602,-0.97 5.241,-2.91Z" style="fill:#595554;fill-rule:nonzero;"/><path d="M809.663,2147.766l0,-25.7l3.206,0l0,11.344c1.693,-2.474 3.765,-3.711 6.217,-3.711c1.541,0 2.764,0.486 3.67,1.457c0.906,0.971 1.359,2.276 1.359,3.914l0,12.695l-3.206,0l0,-11.654c0,-1.313 -0.193,-2.249 -0.578,-2.808c-0.385,-0.559 -1.023,-0.838 -1.912,-0.838c-1.964,0 -3.814,1.286 -5.55,3.857l0,11.442l-3.206,0Z" style="fill:#595554;fill-rule:nonzero;"/><path d="M838.225,2147.766c-0.987,0.271 -1.845,0.407 -2.572,0.407c-1.628,0 -2.897,-0.467 -3.809,-1.4c-0.911,-0.933 -1.367,-2.23 -1.367,-3.89l0,-10.384l-2.214,0l0,-2.409l2.214,0l0,-3.206l3.206,-0.309l0,3.516l4.622,0l0,2.409l-4.622,0l0,9.798c0,2.311 0.998,3.467 2.995,3.467c0.423,0 0.939,-0.071 1.546,-0.212l0,2.214Z" style="fill:#595554;fill-rule:nonzero;"/><path d="M842.162,2147.148l0,-2.946c2.094,1.042 3.917,1.562 5.469,1.562c0.922,0 1.687,-0.25 2.295,-0.749c0.608,-0.499 0.911,-1.123 0.911,-1.872c0,-1.096 -0.852,-2.002 -2.555,-2.718l-1.872,-0.798c-2.767,-1.15 -4.15,-2.805 -4.15,-4.964c0,-1.541 0.545,-2.753 1.636,-3.638c1.09,-0.884 2.585,-1.326 4.484,-1.326c0.987,0 2.208,0.136 3.662,0.407l0.667,0.13l0,2.669c-1.79,-0.532 -3.217,-0.798 -4.281,-0.798c-0.933,0 -1.679,0.203 -2.238,0.61c-0.559,0.407 -0.838,0.952 -0.838,1.636c0,0.966 0.781,1.78 2.344,2.441l1.546,0.651c1.747,0.738 2.984,1.516 3.711,2.336c0.727,0.819 1.09,1.842 1.09,3.068c0,1.552 -0.613,2.827 -1.839,3.825c-1.226,0.998 -2.794,1.497 -4.704,1.497c-1.465,0 -3.244,-0.342 -5.339,-1.025Z" style="fill:#595554;fill-rule:nonzero;"/><path d="M870.35,2147.766l0,-17.676l3.206,0l0,3.32c1.27,-2.474 3.114,-3.711 5.534,-3.711c0.326,0 0.667,0.027 1.025,0.082l0,3.011c-0.553,-0.184 -1.042,-0.277 -1.465,-0.277c-2.029,0 -3.727,1.203 -5.094,3.609l0,11.641l-3.206,0Z" style="fill:#595554;fill-rule:nonzero;"/><path d="M896.943,2147.197c-2.148,0.651 -3.988,0.977 -5.518,0.977c-2.615,0 -4.742,-0.865 -6.38,-2.594c-1.638,-1.729 -2.458,-3.971 -2.458,-6.724c0,-2.678 0.724,-4.873 2.173,-6.586c1.449,-1.713 3.301,-2.569 5.558,-2.569c2.138,0 3.79,0.762 4.956,2.287c1.166,1.525 1.75,3.687 1.75,6.486l-0.016,0.977l-11.149,0c0.467,4.188 2.523,6.283 6.169,6.283c1.335,0 2.973,-0.363 4.915,-1.09l0,2.555Zm-10.938,-10.156l7.796,0c0,-3.288 -1.226,-4.932 -3.678,-4.932c-2.463,0 -3.836,1.644 -4.118,4.932Z" style="fill:#595554;fill-rule:nonzero;"/><path d="M901.905,2147.148l0,-2.946c2.094,1.042 3.917,1.562 5.469,1.562c0.922,0 1.687,-0.25 2.295,-0.749c0.608,-0.499 0.911,-1.123 0.911,-1.872c0,-1.096 -0.852,-2.002 -2.555,-2.718l-1.872,-0.798c-2.767,-1.15 -4.15,-2.805 -4.15,-4.964c0,-1.541 0.545,-2.753 1.636,-3.638c1.09,-0.884 2.585,-1.326 4.484,-1.326c0.987,0 2.208,0.136 3.662,0.407l0.667,0.13l0,2.669c-1.79,-0.532 -3.217,-0.798 -4.281,-0.798c-0.933,0 -1.679,0.203 -2.238,0.61c-0.559,0.407 -0.838,0.952 -0.838,1.636c0,0.966 0.781,1.78 2.344,2.441l1.546,0.651c1.747,0.738 2.984,1.516 3.711,2.336c0.727,0.819 1.09,1.842 1.09,3.068c0,1.552 -0.613,2.827 -1.839,3.825c-1.226,0.998 -2.794,1.497 -4.704,1.497c-1.465,0 -3.244,-0.342 -5.339,-1.025Z" style="fill:#595554;fill-rule:nonzero;"/><path d="M932.503,2147.197c-2.148,0.651 -3.988,0.977 -5.518,0.977c-2.615,0 -4.742,-0.865 -6.38,-2.594c-1.638,-1.729 -2.458,-3.971 -2.458,-6.724c0,-2.678 0.724,-4.873 2.173,-6.586c1.449,-1.713 3.301,-2.569 5.558,-2.569c2.138,0 3.79,0.762 4.956,2.287c1.166,1.525 1.75,3.687 1.75,6.486l-0.016,0.977l-11.149,0c0.467,4.188 2.523,6.283 6.169,6.283c1.335,0 2.973,-0.363 4.915,-1.09l0,2.555Zm-10.938,-10.156l7.796,0c0,-3.288 -1.226,-4.932 -3.678,-4.932c-2.463,0 -3.836,1.644 -4.118,4.932Z" style="fill:#595554;fill-rule:nonzero;"/><path d="M938.116,2147.766l0,-17.676l3.206,0l0,3.32c1.27,-2.474 3.114,-3.711 5.534,-3.711c0.326,0 0.667,0.027 1.025,0.082l0,3.011c-0.553,-0.184 -1.042,-0.277 -1.465,-0.277c-2.029,0 -3.727,1.203 -5.094,3.609l0,11.641l-3.206,0Z" style="fill:#595554;fill-rule:nonzero;"/><path d="M955.416,2147.766l-6.576,-17.676l3.206,0l5.143,13.76l5.42,-13.76l2.995,0l-6.982,17.676l-3.206,0Z" style="fill:#595554;fill-rule:nonzero;"/><path d="M981.96,2147.197c-2.148,0.651 -3.988,0.977 -5.518,0.977c-2.615,0 -4.742,-0.865 -6.38,-2.594c-1.638,-1.729 -2.458,-3.971 -2.458,-6.724c0,-2.678 0.724,-4.873 2.173,-6.586c1.449,-1.713 3.301,-2.569 5.558,-2.569c2.138,0 3.79,0.762 4.956,2.287c1.166,1.525 1.75,3.687 1.75,6.486l-0.016,0.977l-11.149,0c0.467,4.188 2.523,6.283 6.169,6.283c1.335,0 2.973,-0.363 4.915,-1.09l0,2.555Zm-10.938,-10.156l7.796,0c0,-3.288 -1.226,-4.932 -3.678,-4.932c-2.463,0 -3.836,1.644 -4.118,4.932Z" style="fill:#595554;fill-rule:nonzero;"/><path d="M998.918,2147.766l0,-3.32c-1.302,2.485 -3.266,3.727 -5.892,3.727c-2.127,0 -3.8,-0.776 -5.021,-2.327c-1.221,-1.552 -1.831,-3.673 -1.831,-6.364c0,-2.941 0.692,-5.306 2.075,-7.096c1.383,-1.79 3.204,-2.686 5.461,-2.686c2.094,0 3.83,0.803 5.208,2.409l0,-10.042l3.223,0l0,25.7l-3.223,0Zm0,-13.46c-1.66,-1.465 -3.234,-2.197 -4.72,-2.197c-1.465,0 -2.599,0.613 -3.402,1.839c-0.803,1.226 -1.204,2.962 -1.204,5.208c0,4.134 1.367,6.201 4.102,6.201c1.78,0 3.521,-0.971 5.225,-2.913l0,-8.138Z" style="fill:#595554;fill-rule:nonzero;"/><rect x="1008.6" y="2143.746" width="4.02" height="4.02" style="fill:#595554;fill-rule:nonzero;"/></svg>